<?xml version="1.0" encoding="UTF-8"?>
<!DOCTYPE svg PUBLIC "-//W3C//DTD SVG 1.1//EN" "http://www.w3.org/Graphics/SVG/1.1/DTD/svg11.dtd">
<!-- Creator: CorelDRAW 2020 (64-Bit) -->
<svg xmlns="http://www.w3.org/2000/svg" xml:space="preserve" width="653.786mm" height="151.414mm" version="1.1" style="shape-rendering:geometricPrecision; text-rendering:geometricPrecision; image-rendering:optimizeQuality; fill-rule:evenodd; clip-rule:evenodd"
viewBox="0 0 66839.18 15479.65"
 xmlns:xlink="http://www.w3.org/1999/xlink"
 xmlns:xodm="http://www.corel.com/coreldraw/odm/2003">
 <defs>
  <style type="text/css">
   <![CDATA[
    .fil0 {fill:#4B5B6F}
    .fil1 {fill:lightgrey}
   ]]>
  </style>
 </defs>
 <g id="Layer_x0020_1">
  <metadata id="CorelCorpID_0Corel-Layer"/>
  <g id="_2331959985056">
   <path class="fil0" d="M35524.55 8866.19c70.4,37.24 188.39,69.24 294.27,69.24l0 744.34 -294.27 0 0 -813.58zm13501.95 346.21l-242.35 0c13.24,-56.86 47.05,-124.23 68.75,-173.58 20.6,-46.82 58.7,-125.31 69.72,-172.62 2.41,3.47 5.38,5.09 6.29,11.02 1.24,8.08 10.24,18.29 12.3,22.32l58.44 132.44c57.5,132.01 30.63,43.1 26.85,180.42zm-380.83 -17.32l0 -952.06 216.13 473.27c4.4,31.78 -76.48,194.29 -95.19,236.21l-80.84 178.82c-17.08,37.73 -18.97,39.45 -40.11,63.75zm-501.99 -813.58l0 276.96 -121.18 0 121.18 -276.96zm-519.31 -173.1l207.72 450.07 -225.03 0c0,-174.64 17.31,-280.37 17.31,-450.07zm1505.99 207.73c0,177.57 -51.93,307.11 -51.93,484.68l-35.08 -51.52c-74.12,-128.72 -53.86,-169.37 74.48,-411.08 1.55,-2.92 4.97,-8.72 6.25,-11.06 1.28,-2.34 3.87,-7.56 6.29,-11.02zm0 0l9.52 -37.22 -9.52 37.22zm-1384.82 -207.73l346.21 0c-31.41,134.82 -124.39,246.02 -155.79,380.83 -53.94,-39.52 -69.03,-108.13 -98.86,-178.1l-91.55 -202.73zm1003.99 0l346.21 0c-32.83,140.92 -122.19,236.63 -155.78,380.83 -55.9,-40.95 -154.46,-312.86 -190.42,-380.83zm103.87 -536.61l190.41 363.51 -328.9 0c7.37,-88.64 106.24,-225.15 138.49,-363.51zm-882.82 0c28.58,122.68 130.54,268.12 138.48,363.51l-311.58 0c35.88,-74.8 110.62,-317.73 173.1,-363.51zm-8551.25 -86.55l311.59 0 0 311.58 -121.18 0c-96.1,0 -102.64,-17.31 -190.41,-17.31l0 -294.27zm-1904.12 -17.32l138.49 0 0 311.59 -138.49 0 0 -311.59zm-1107.84 242.35c0,47.89 13.35,41.63 51.92,51.93l0 103.86c-78.28,1.74 -68.79,17.31 -155.79,17.31l0 -761.64 155.79 0 1.27 468.64c-12.11,142.11 -53.19,22.93 -53.19,119.9zm12532.58 -276.96c0,-40.77 125.65,-360.86 173.09,-415.45 0,289.98 34.63,552.11 34.63,848.21 -20.09,-23.12 -6.39,-0.4 -27.1,-42.13l-180.62 -390.63zm-294.28 328.9l0 -709.72 155.79 346.21c0,56.48 -78.98,208.14 -109.52,271.3l-46.27 92.22zm-501.99 -605.86l0 519.31 -66.94 -123.52c-56.77,-138.61 -72.2,-98.38 3.54,-268.76 11.3,-25.44 17.48,-41.65 25.82,-60.75l37.58 -66.28zm-467.38 778.96l-34.62 0c0,-352.04 34.62,-648.39 34.62,-1004l57.81 115.29c217.87,460.24 170.39,350.24 46.28,629.28 -30.5,68.56 -99.73,207.08 -104.09,259.43zm-12896.09 -761.65l242.35 0 0 173.1 -242.35 0 0 -173.1zm-294.27 0l225.04 0 0 173.1 -225.04 0 0 -173.1zm-311.58 0l225.03 0 0 173.1 -225.03 0 0 -173.1zm-294.28 0l225.04 0 0 173.1 -225.04 0 0 -173.1zm-311.58 0l225.03 0 0 173.1 -225.03 0 0 -173.1zm-311.59 0l242.35 0 0 173.1 -242.35 0 0 -173.1zm-294.27 0l225.04 0 0 173.1 -225.04 0 0 -173.1zm-917.44 0l225.03 0 0 173.1 -225.03 0 0 -173.1zm5573.87 138.49c49.71,20.06 34.63,-11.55 34.63,86.55l-138.49 0 0 -519.31 138.49 0 1.93 278.89c-10.9,105.17 15.48,46.3 -36.56,67.31l0 86.55zm18435.37 -190.41l155.79 0 0 51.92 -155.79 0 0 -51.92zm-7374.15 -259.65l380.82 0 -207.72 398.13c-20.91,-89.72 -44.9,-118.99 -80.86,-196.12 -35.67,-76.5 -55.7,-132.93 -92.25,-202.01zm-917.45 0l380.83 0c-8.81,105.81 -145.19,295.64 -173.1,415.44 -56.76,-41.58 -164.34,-333.45 -207.73,-415.44zm8395.45 86.55l51.93 0 0 103.86 -155.79 0 0 -588.55 155.79 0 -0.13 328.76c-12.97,79.75 -3.45,20.94 -19.7,49.54 -29.83,52.51 -32.1,-21.14 -32.1,106.38zm-19750.93 -51.93c0,86.7 51.92,-11.45 51.92,155.79l-155.79 0 0 -588.55 155.79 0c0,130.8 19.73,313.34 -25.99,389.46 -20.56,34.22 -25.94,-31.63 -25.94,43.3zm12428.71 -536.62l34.63 0c8.75,105.14 111.64,231.72 121.17,346.21l-294.27 0c28.26,-53.4 46.67,-110.25 71.52,-170.81 25.52,-62.15 48.98,-98.23 66.95,-175.39zm-848.2 0c62.31,71.69 108.87,248.41 155.79,346.21l-294.28 0c26.44,-49.96 48.99,-110.17 74.11,-168.24 26.47,-61.18 49.36,-113.53 64.38,-177.97zm155.79 -346.21l0 380.82c-75.12,-86.42 -95.65,-183.87 -46.7,-288.79l40.41 -81.01c1.28,-2.34 3.87,-7.54 6.29,-11.02zm-450.07 692.41l27.31 -474.68c12.06,-79.68 5.65,-153.4 6.62,-235.72 1.17,-99.57 17.99,-130.53 17.99,-241.66 19.7,22.67 6.52,0.63 27.24,42.01l163.18 390.75c0,67.1 -121.42,314.97 -160.28,410.95 -28.55,70.51 -13.05,89.93 -82.05,108.36zm1367.5 -848.21c0,144.08 1.35,263.69 14.78,383.36 6.81,60.66 1.93,127.02 1.94,188.47 0,95 16.22,114.84 17.89,189.83l-172.17 -382.84c-21.37,-64.8 15.32,-122.2 46.13,-193.25l62.64 -145.11c19.85,-35.49 12.46,-21.66 28.79,-40.45zm-415.45 675.1l0 -675.1 144.1 332.22 -144.1 342.88zm-9001.3 51.93l-103.86 0 0 173.09 190.41 0 0 657.79 -311.59 0 0 -1852.2 311.59 0 0 311.59 -86.55 0 0 709.72zm9018.61 -969.37l380.83 0c-30.57,57.76 -168.02,371.62 -173.1,432.76l-34.63 0c-4.84,-58.18 -55.64,-157.43 -80.63,-213.64 -33.94,-76.28 -59.19,-149.77 -92.47,-219.12zm-865.5 0l346.21 0c0,168.96 -2.28,125.62 -61.82,267.08 -24.54,58.31 -50.53,151.15 -93.97,182.99l-190.41 -450.07zm1003.99 -692.41c47.12,34.52 88.44,187.07 118.66,262.16 31.56,78.4 88.68,198.52 106.37,274.46l-380.83 0c0,-177.53 106.69,-325.84 155.79,-536.62zm-848.2 155.79l34.62 0c7.89,94.86 112.67,278.7 121.17,380.82l-294.27 0c31.41,-134.79 107.08,-246.04 138.49,-380.82zm-8308.9 138.48l86.55 0 0 276.96 -311.59 0 0 -1488.67 311.59 0 0 1038.61 -86.55 0 0 173.1zm8118.48 86.55l34.71 -519.22c3.22,-59.54 -0.08,-129.76 -0.08,-190.5l121.17 346.21 -108.43 272.39c-1.07,2.75 -17.32,43.6 -20.13,49.12 -20.9,41.05 -6.37,17.99 -27.24,42zm380.83 -657.78l-12.46 549.08c-134.4,-284.26 -109.18,-276.43 -22.54,-480.22l35 -68.85zm848.2 -173.1l16.73 571.83c0.01,95 16.22,114.84 17.9,189.83l-37.65 -83.53c-118.84,-312.22 -151.45,-295.24 -85.7,-489.85 21.69,-64.2 41.63,-153.76 88.73,-188.27zm-346.21 588.55l0 -553.93c2.71,3.12 6.45,4.2 7.42,9.89 0.06,0.36 105.4,209.45 101.97,263.73 -0.3,4.61 -40.36,115.91 -47.47,134.46l-61.92 145.86zm-675.09 -259.65c-4.46,-53.53 -50.24,-159.61 -69.24,-207.73 -19.01,-48.11 -64.79,-154.19 -69.24,-207.72l311.59 0 -166.83 404.43c-1.28,2.34 -3.86,7.54 -6.28,11.02zm727.03 -415.45l207.72 0c-18.62,79.9 -79.78,178.36 -86.55,259.65 -60.49,-44.32 -85.36,-185.01 -121.17,-259.65zm-51.93 -207.72c0,-156.19 75.98,-236.43 86.55,-363.51l34.63 0c3.67,44.14 103.73,379.1 121.17,415.44l-242.35 0 0 -51.92zm-623.17 -346.21c60.26,44.14 121.18,311.59 121.18,398.13l-259.65 0c23.7,-101.72 131.47,-313.9 138.48,-398.13zm69.24 -138.49l51.93 -138.48 -12.65 254.98 -39.29 -116.51zm709.72 -51.92c0,-52.51 38.43,-137.02 54.13,-188.21 7.84,-25.58 15.62,-60.25 25.8,-95.36l41.23 -97.25c0,100.64 6.32,152.11 14.78,227.55l19.84 464.85c-1.1,107.94 15.53,162.53 17.31,242.35 -32.38,-46.6 -77.51,-212.06 -93.86,-269.65 -21.4,-75.43 -79.24,-211.5 -79.24,-284.27zm-155.79 155.79l33.55 -258.59c27.3,81.9 25.14,133.59 -9.43,213.48 -2.13,4.91 -9.39,19.15 -11.44,23.19l-12.69 21.93zm-813.58 311.58c0,-298.48 34.63,-538.45 34.63,-813.58l41.23 97.25c87.55,301.86 141.33,243.54 -45.92,659.72l-29.93 56.62zm-8187.72 -553.92l0 121.17 86.55 0 0 207.73 -311.59 0 0 -1125.17 311.59 0 0 744.34c-55.47,1.24 -86.55,-5.63 -86.55,51.93zm8274.28 -415.45l225.04 0c0,127.94 -19.63,318.53 -103.87,415.45 -30.66,-131.61 -105.36,-292.21 -121.17,-415.45zm848.21 328.9l-34.63 0c-8.73,-104.99 -77.36,-218.44 -86.55,-328.9l225.04 0c-23,47.94 -98.96,270 -103.86,328.9zm-121.18 -727.03l207.73 0c39.88,0 51.92,12.04 51.92,51.92l0 190.42 -259.65 0 0 -242.35zm-761.64 103.86c0,-59.67 12.8,-67.02 17.31,-121.17l242.35 0 0 259.65 -259.65 0 0 -138.49zm11320.87 8481.99l0 -666.35 242.35 0c65.93,12.67 140.67,11.3 209.71,10.59 102.25,-1.04 103.12,-1.36 103.86,-103.89l-0.47 -869.03c1.67,-152.43 19.23,-119.64 -317.43,-119.64 -52.89,29.01 -180,12.73 -256.26,13.7 -217.18,2.78 -45.98,-36.65 -205.1,-53.64 -131.48,-14.04 -375.86,1.16 -524.72,1.17l-0.51 -1003.05 -559.41 -4.38c14.64,-71.56 17.47,1.37 35.77,-78.97 -51.38,-56.89 -39.38,-12.56 -40.33,-119.48l-0.24 -349.19c2.83,-101.22 2.15,-53.86 40.47,-119.87 -15.15,-33.85 -33.52,-19.14 -40.07,-103.37l6.76 -364c30.15,-182.99 -35.55,-159.13 41.97,-190.42 -8.21,-98.7 -26.41,-22.46 -34.62,-121.17l-103.86 0c-8.79,80.35 -15.87,51.93 -121.18,51.93l0 69.23c47.56,19.2 34.63,-58.12 34.63,190.42l-4.33 99.54 -133.57 0 -9.1 670.98 -538.99 0c-25.31,-93.49 -15.23,-644.21 -7.81,-770.52l1.54 -225.04 -502.15 0 0 -225.03 51.93 0c0,-90.96 19.12,-84.9 -51.93,-103.87l0 -830.89 51.93 0 0 -86.55c-94.85,-10.38 -24.41,6.88 -69.24,-86.55l-138.49 0c-22.04,45.95 -15.78,18.52 -17.31,86.55l-190.41 0c0,103.62 -21.2,78.56 51.93,86.55l0 380.82c-316.61,0 -242.35,-131.95 -242.35,778.96l-778.96 0 0 225.04 -0.54 415.58 -622.8 0 -7.26 -415.58c-50.02,-225.84 2.99,-675.42 -31.92,-930.02 -37.8,-275.78 0.52,-643.62 -32.42,-936.96 -15.76,-140.41 -0.68,-319.33 -17.31,-467.37 -15.76,-140.41 -0.68,-319.33 -17.31,-467.37 -32.71,-291.38 -7.51,-628.41 -33,-936.37 -24.47,-295.71 -23.68,-602.52 -33.14,-918.92 -2.7,-90.2 -18.72,-118 -18.28,-224.06 0.32,-79.48 3.32,-164.48 0.97,-243.32 -2.7,-90.2 -18.72,-118 -18.29,-224.06l-16.21 -710.81c-1.21,-98.24 -18.44,-119.75 -18.59,-223.75 -0.11,-80.83 2.28,-162.96 1.28,-243.62 -1.22,-98.24 -18.44,-119.75 -18.6,-223.75 -0.11,-81.06 1.31,-162.48 1.19,-243.53 -0.14,-104.01 -17.38,-125.51 -18.59,-223.75 -0.99,-80.36 0.68,-162.43 0.68,-243.03 -69.93,-33.55 -147.21,-45.19 -258.59,-33.67 -120.19,12.43 -109.39,63.72 -120.01,174.36 -9.01,93.86 4.6,197.82 -3.13,291.15 -8.13,98.2 -15.71,172.4 -15.81,295.77l-139.64 2855.02c-6.37,213.14 -9.81,376.54 -16.18,589.68 -2.89,97.11 -18.76,155.77 -17.87,276.4 0.89,120.63 -14.98,179.29 -17.88,276.4 -6.37,213.14 -9.8,376.54 -16.17,589.68l-69.71 1418.97c0.9,121.69 -16.83,172.56 -18.1,276.18l-33.72 866.41c0.99,125.62 -18.49,172.77 -17.92,293.66 0.97,209.11 -16.91,369.25 -16.91,588.95l-623.17 0 0 692.41 -173.1 0 0 155.78 -225.04 0c0,-838.93 84.21,-761.64 -225.03,-761.64l0 -225.04 -103.86 0 -17.31 -1280.95c0.2,-163.84 -17.95,-257.44 -17.37,-415.39 2.2,-591.97 -17.26,-1126.04 -17.26,-1713.76l-17.08 -1281.19c0.84,-145.28 -17.57,-252.84 -17.53,-415.21 0.14,-590.49 -17.31,-1123.7 -17.31,-1713.71l-259.65 0c0,1149.23 -35.3,2258.48 -34.63,3410.11 0.1,163.91 -18.21,263.06 -17.42,415.33l0.11 865.63c0,68.09 2.59,140.86 0.56,208.29 -2.65,88.61 -18.33,106.45 -18.46,206.55 -0.4,288.64 0.59,577.44 0.59,866.11 0,295.1 -17.31,543.25 -17.31,848.2l-173.1 0 -17.31 -1488.67c0.04,-190.6 -17.43,-313.59 -17.32,-501.99 0.41,-688.56 -17.38,-1320.23 -17.31,-2007.99 0.02,-186.24 -17.73,-307.61 -17.33,-484.66l-17.29 -2008.01c0,-79.49 2.92,-164.15 0.56,-242.91 -2.75,-92.05 -18.74,-130.3 -18.11,-241.55l1.25 -762.89c2.38,-136.33 15.85,-139.11 -121.69,-140.01 -197.39,-1.29 -138.98,33.23 -138.98,366.06 0,167.32 -0.75,334.81 0.11,502.11 0.85,165.54 -17.43,300.92 -17.43,484.57l-17.26 2527.34c0.64,171.8 -17.37,299.12 -17.36,484.63l0.01 1004c0.22,185.15 -17.34,310.3 -17.32,501.99 0.07,689.13 -17.31,1330.18 -17.31,2007.98l-207.73 0c0,-967.76 -36.79,-1889.29 -34.6,-2856.2 0.33,-142.02 -18.26,-218.69 -17.74,-345.79l0.43 -727.45c0.32,-142.02 -18.26,-218.69 -17.74,-345.78 2.04,-498.42 -16.91,-954.41 -16.91,-1437.16l-225.03 0c0,1987.69 -69.24,3944.42 -69.24,5937.4l-311.58 0 0 761.64 -138.49 0c-1.51,-68.03 4.74,-40.6 -17.31,-86.55l-155.79 0c0,-233.37 -74.96,-609.63 -102.41,-849.65l-290.51 -2323.33c-5.1,-39.27 -5.36,-70.85 -11.63,-109.53 -0.42,-2.56 -7.15,-35.72 -9.13,-42.81l-19.08 -50.17c-25.56,307.12 -122.36,825.36 -167.75,1165.14 -7.26,54.39 -9.16,106.09 -39.97,150.44l-54.46 -1278.43c-22.76,-202.74 -14.95,-423.68 -33,-642.1 -17.2,-208.14 -21.58,-417.27 -33.62,-641.47l-68.64 -1281.56c-1.2,-107.37 -17.54,-181.35 -17.42,-311.47 0.04,-51.62 -10.49,-583.48 -60.53,-614.57 -35.22,-21.88 -279.27,-8.03 -338.18,-8.03l0 -796.27 207.73 0 0 -294.28 -207.73 0c0,-336.1 74.04,-311.88 -242.34,-311.59 -332.27,0.3 -259.65,-37.42 -259.65,311.59l-155.79 0 0 294.28 155.79 0 0 778.95c-63.51,0 -127.25,0.56 -190.73,-0.31 -199.18,-2.75 -189.94,-32.35 -189.53,433.64 0.09,95.27 -13.74,111.23 -17.96,189.76 -10.46,194.76 3.01,396.17 -27.24,595.93 -10.55,69.71 -6.8,128.64 -6.73,200.99 0.08,95.27 -13.75,111.23 -17.97,189.76l-17.57 397.86c1.48,190.33 -24.31,401.89 -34.35,588.82 -10.47,194.76 3.01,396.17 -27.24,595.93l-110.48 2174.47c-1.76,159.14 -35.3,394.32 -35.3,587.86l-588.54 0c-23.09,48.13 -17.32,33.52 -17.32,103.87l-103.86 0 0 -398.14 -259.65 0 0 571.24 -294.27 0 0 328.89 -69.24 0c17.04,-63.79 50.3,-59.68 46.54,-118.46 -3.15,-49.1 -38.91,-58.04 -46.54,-141.18 -9.42,-102.69 -1.26,-273.13 0.6,-381.45 3.81,-221.64 -17.43,-142.95 -225.39,-156.81l-346.45 1.62c0,-178.87 -0.05,-357.74 0,-536.62 0.14,-529.23 -87.68,-169.94 -87.78,-448.83 -0.07,-178.96 0.24,-358.9 1.29,-537.91 1.64,-277.55 1.58,-207.66 -346.27,-207.66l0 -692.41 -380.82 0 0 519.31 -190.41 0 0 138.49 -207.73 0 0 -294.28 -415.44 0 0 328.9 -138.49 0 0 -346.21 -363.51 0 0 311.59 -173.1 0 0 328.89 -450.07 0 0 917.45 -415.45 0 0 346.2c-391.38,0 -359.71,-60.97 -362.21,191.72 -1.31,132.87 -151.03,226.32 -239.32,314.6 -94.72,94.72 -227.14,168.89 -230.66,323.27 -4.14,181.76 1.3,372.31 1.3,555.22l-103.86 0 0 -796.27c-135.78,-11.86 31.3,7.72 -68.8,-68.55 -27.47,-20.93 -88.5,-34.19 -138.92,-35.31l0 -276.96c81.81,-19.07 165.11,-28.4 207.72,-86.55 -49.46,-67.51 -209.87,-86.55 -294.27,-86.55l0 -207.72c-62.27,-41.7 -72.86,-37.76 -138.49,-69.24 0,-577.97 71.31,-588.55 -155.79,-588.55l0 553.92c-154.7,-36.04 -384.21,-69.23 -571.23,-69.23l0 -1090.55c252.6,0 259.65,61.12 259.65,-173.09l-155.79 0 0 -709.72 -103.86 0 0 -657.79 121.17 0 0 -173.1 -121.17 0 0 -1367.5 121.17 0c0,-163.93 37.32,-173.1 -121.17,-173.1l0 -1592.53 103.86 0 0 -155.79 -103.86 0 0 -138.49 -294.27 0 0 138.49 -363.51 0 0 155.79 86.55 0 0 744.34 -432.76 0 0 5123.82 -1021.53 -17.54c-134.04,-0.77 -203.92,17.54 -345.97,17.54l0 -467.37c67.66,-5.63 52.57,10.47 69.23,-51.93 -38.96,-53.18 11.15,-27.93 -69.23,-34.62l0 -744.35 51.92 0 0 -103.86c-77.82,-8.52 -43.42,25.9 -51.92,-51.92l-138.49 0 0 51.92c-323.41,0 -149.86,35.06 -137.26,171.84l-1.22 260.92c-274.09,0 -207.72,-19.4 -207.72,380.82 0,201.95 0,403.91 0,605.86 -230.72,0 -520.05,34.62 -675.09,34.62l0 -69.23c103.97,-8.66 103.97,-95.21 0,-103.87l0 -709.71c103.97,-8.66 103.97,-95.21 0,-103.87l0 -830.89 51.92 0 0 -86.55c-94.84,-10.38 -24.41,6.88 -69.24,-86.55l-121.17 0c-22.04,45.95 -15.8,18.52 -17.31,86.55l-207.72 0c0,103.62 -21.2,78.56 51.92,86.55l0 380.82c-255.36,0 -226.59,-46.42 -225.09,207.67l0.06 1298.32c-86.37,1.92 -233.1,43.5 -297.27,66.25 -141.94,50.32 -118.18,87.62 -118.18,262.65 -74.84,6.23 -215.54,26.35 -259.65,86.55 44.15,60.26 160.74,84.34 259.65,86.55l0 259.65c-108.53,0 -224.28,32.2 -294.27,69.23l0 -51.92 -207.73 -34.63 0 -346.2 -86.55 0 0 -398.14 138.49 0 0 -103.86 -138.49 0c0,-421.5 62.4,-450.07 -138.48,-450.07l0 -242.35 -2129.16 0 0 -190.41 -173.1 0 0 -121.17 -346.21 0 0 121.17 -103.86 0 0 190.41 -363.51 0 0 242.35c-254.8,0 -190.41,-28.46 -190.41,450.07l-103.86 0 0 103.86 103.86 0 0 398.14c-77.83,8.51 -43.42,-25.9 -51.93,51.92l-432.75 0 0 190.41 -86.55 0 0 -1229.02c-48.13,-23.09 -33.52,-17.32 -103.87,-17.32l0 -276.96c172.81,0 157.38,20.23 157.42,-156.2 0.04,-169.69 -0.44,-140.78 -174.41,-138.38 -303.76,4.19 -364.68,-56.18 -365.82,102.18 -0.41,57.07 1.99,117.24 1.99,175.1 48.13,23.09 33.52,17.31 103.86,17.31l0 276.96 -121.17 0 0 2284.95 -502 0 0 -155.79 -173.1 0c-18.73,-225.12 -133.32,-443.83 -138.48,-675.09 80.04,-21.38 51.93,-68.56 51.93,-173.1 -100.59,-48.26 -88.97,22.14 -107.75,-134.6 -6.62,-55.33 -19.02,-164.43 -25.65,-216.69 -48.39,-380.9 -68.96,-759.83 -73.63,-1138.08 -1.24,-99.98 -18.86,-130.47 -18.41,-241.25 1.27,-309.83 -43.9,-668.38 -4.32,-957.2 10.77,-78.51 0.41,-158.79 4.65,-237.69 4.49,-83.61 18.61,-118.62 17.39,-224.95l17.31 -484.69c-162.26,-77.85 -829.93,-156.03 -1090.24,-156.31 -219.92,-0.24 -361.63,43.29 -571.26,52.71 -139.36,6.28 -259.8,42.7 -378.79,88.6 -46.65,17.98 -68.71,36.87 -123.48,49.62 0,204.79 35.83,427.39 34.74,640.36 -1.16,224.96 -0.14,450.21 -0.11,675.21 0.02,234.26 -18.45,414.73 -17.2,657.91 0.83,161.85 -21.26,508.24 -52.05,640.36l-502 0 0 1990.67 -484.68 0c0,-252.6 61.12,-259.65 -173.1,-259.65 -5.96,-71.61 -86.15,-249.12 -114.68,-335.4 -213.35,-645.35 -362.22,-1270.29 -353.39,-1984.85 1.19,-96.17 17.53,-110.2 18.69,-206.35l19.83 -618.99c2.13,-260.56 -1368.83,-218.64 -1671.47,-115.21 -69.54,23.77 -36.8,24.92 -97.39,41.1 0,179.4 17.75,305.65 16.91,485.09 -0.75,159.13 38.17,316.63 11,494.88 -37.92,248.8 -233.2,1537.74 -290.79,1751.8 -38.01,141.28 -265.72,651.32 -273.73,747.58l-467.37 0c-300.53,-626.33 -567.88,-1539.48 -637.59,-2218.59l-38.47 -533.57 52.9 -1090.7c-320.61,-214.68 -1330.34,-183.33 -1727.01,-99.85 -193.28,40.68 -195.55,57.21 -194.17,237.4 1.36,177.75 -0.72,371.46 19.59,552.33 22.12,197.03 43.11,533.65 -2.53,729.56l-467.37 0 1.02 -1230.05c3.37,-193.39 -38.69,-137.45 -277.98,-137.45l0 1367.5 -452.06 -1.99c-81.88,0.59 -88.42,-12.41 -102.11,53.68 -16.19,78.22 0.24,493.45 0.24,606.09l-311.58 0 0 138.49 -571.23 0c0,-144.25 -0.09,-288.5 0,-432.76 0.09,-163.92 -18.21,-263.07 -17.43,-415.33 1.56,-302.81 -17.23,-563.6 -17.2,-848.32 0.06,-572.58 -34.62,-1125.48 -34.62,-1696.4 -332.12,0 -263.4,-92.07 -259.54,657.91 0.82,158.65 -17.44,276 -17.42,449.94 0.01,155.84 -0.66,311.8 0.22,467.61 0.85,148.39 -17.55,265.48 -17.54,432.52 0.02,155.79 -0.68,311.72 0.12,467.5 0.82,158.65 -17.44,276 -17.43,449.95 0.02,155.78 0,311.58 0,467.37l-225.03 0c0,-87.51 -18.17,-132.8 -17.54,-242.12l-17.08 -1281.18c0.01,-197.42 -17.54,-330.17 -17.32,-519.3 0.86,-699.03 -34.61,-1363.56 -34.61,-2059.92 -452.23,0 -190.04,-4.84 -260.56,847.3 -26.19,316.43 21.59,764.33 -26.41,1081.44 -43.43,286.96 1.53,779.25 -23.71,1084.15 -21.91,264.7 -2.22,561.49 -0.67,830.2 0.66,116.08 -17.54,158.42 -17.54,259.43l-242.35 0c0,-863.09 -69.23,-1768.07 -69.23,-2631.15 -194.18,0 -229.35,-51.27 -226.06,137.45 12.39,709.75 -34.01,1436.86 -33.59,2147.49 0.03,55.17 3,119.11 0.08,173.18 -4.23,78.38 -17.39,81.9 -17.39,173.02l-121.18 0 -34.62 467.37 -155.79 0c0,-104.01 -0.54,-208.05 0.47,-312.05 1.67,-172.33 -0.53,-155.06 -104.33,-224.57l0 -727.03 -328.9 0 0 -605.86 -398.13 0 0 450.07 -173.1 0 0 121.18 -207.72 0 0 -259.65 -415.45 0 0 294.27 -138.49 0 0 -311.59 -363.51 0 0 276.97 -51.92 0 0 -5245c-138.34,0 -277.86,1.78 -416.05,-0.6 -215.29,-3.7 -155.26,39.21 -155.19,277.57l0 6058.58 -415.44 0 0 294.27 -173.1 0 0 -398.14 -692.41 0 0 -1454.06 -155.79 0 0 1454.06 -778.95 0c0,-80.94 0.71,-162.04 0.59,-242.93 -0.15,-107.04 -18.35,-134.13 -18.5,-241.16 -0.11,-81.05 1.3,-162.47 1.19,-243.53 -0.14,-107.03 -18.34,-134.12 -18.49,-241.15 -0.11,-80.83 2.28,-162.96 1.29,-243.62 -1.24,-99.98 -18.86,-130.47 -18.41,-241.25 0.33,-79.48 3.33,-164.48 0.97,-243.32 -2.75,-92.05 -18.74,-130.3 -18.11,-241.55 0.46,-79.21 3.15,-164.58 0.8,-243.13 -2.75,-92.05 -18.74,-130.31 -18.11,-241.55 1.91,-332.7 -36.15,-652.42 -34.5,-969.49 0.97,-186.45 -17.9,-312.02 -17.25,-484.75 0.71,-186.71 -17.7,-307.1 -17.28,-484.71 1.16,-488.52 -52.49,-966.83 -51.91,-1454.08 0.57,-485.6 -55.56,-969.88 -50.41,-1455.58 1.46,-137.36 -0.64,-114.42 -128.98,-130.67 -88.48,-11.2 -173.41,6.45 -236.05,-23.61 -1.73,77.26 -18.25,121.36 -17.53,224.81l-16.5 468.18c-0.08,104.03 -17.39,125.47 -18.59,223.76 -3.98,323.95 -29.28,612.18 -33.25,936.13 -1.21,98.26 -18.47,119.73 -18.59,223.75l-33.12 693.91c-6.32,76.33 1.97,164.35 -0.35,242 -6.68,223.48 -35.85,461.47 -34.78,692.25 0.5,106.1 -15.58,133.8 -18.28,224.06 -6.69,223.84 0.7,478.66 -29.32,697.71l-39.29 930.08c0.91,103.81 -9.98,147.52 -16.46,225.88 -6.32,76.34 1.97,164.36 -0.35,242 -2.7,90.26 -18.78,117.97 -18.28,224.07l-34.3 692.73c-4.23,78.36 4.4,164.15 0.16,242.51 -4.63,85.83 -17.39,132.56 -17.39,242.25l-778.96 0 0 1540.62 -346.21 0c0,-290.23 17.64,-613.8 2.05,-902.19 -4.37,-80.89 13.28,-66.54 -53.98,-84.5 -63.35,46.4 -35.35,89.35 -34.69,207.66l0.06 779.02c-303.44,0 -429.12,-50.07 -434.95,84.34 -7.31,168.54 2.2,366.53 2.2,538.81l-1246.48 -0.14c-272.87,-2.61 -190.27,-9.12 -190.27,588.69 0,680.87 0,1361.74 0,2042.61l51653.65 0 0 -1575.23z"/>
   <path class="fil1" d="M59442.92 9679.77l4.39 -2181.08 -1548.02 0 -6.76 364c6.54,84.23 24.91,69.52 40.07,103.37 -38.33,66.01 -37.64,18.65 -40.47,119.87l0.24 349.19c0.95,106.92 -11.05,62.59 40.33,119.48 -18.3,80.34 -21.13,7.4 -35.77,78.97l559.41 4.38 0.51 1003.05c148.85,-0.01 393.23,-15.2 524.72,-1.17 159.12,16.99 -12.07,56.42 205.1,53.64 76.26,-0.97 203.37,15.31 256.26,-13.7z"/>
   <path class="fil1" d="M57716.23 7498.69l-693.8 0c-7.42,126.31 -17.5,677.02 7.81,770.52l538.99 0 9.1 -670.98 133.57 0 4.33 -99.54z"/>
   <polygon class="fil1" points="55188.93,7498.69 54558.33,7498.69 54565.59,7914.27 55188.39,7914.27 "/>
   <polygon class="fil1" points="59204.9,11428.1 59447.24,11428.1 59447.24,10761.74 59204.9,10761.74 "/>
  </g>
  <rect class="fil0" x="-0" y="10364.7" width="66839.18" height="5114.95"/>
 </g>
</svg>
