<?xml version="1.0" encoding="UTF-8"?>
<svg width="50px" height="50px" viewBox="0 0 50 50" version="1.1" xmlns="http://www.w3.org/2000/svg" xmlns:xlink="http://www.w3.org/1999/xlink">
    <title>Layer1005</title>
    <g id="Page-1" stroke="none" stroke-width="1" fill="none" fill-rule="evenodd">
        <g id="Главная" transform="translate(-20.000000, -20.000000)">
            <g id="Layer1005" transform="translate(20.000000, 20.000000)">
                <line x1="16.4713189" y1="46.2593701" x2="33.3430512" y2="46.2593701" id="path48" stroke="#FFFFFF" stroke-width="0.97649997"></line>
                <path d="M49.8960433,25.0340157 C49.8960433,38.7863976 38.7474606,49.9349213 24.9950197,49.9349213 C11.2425787,49.9349213 0.093996063,38.7863976 0.093996063,25.0340157 C0.093996063,11.2815157 11.2425787,0.132992126 24.9950197,0.132992126 C38.7474606,0.132992126 49.8960433,11.2815157 49.8960433,25.0340157 Z" id="path50" fill="#4B5B6F"></path>
                <path d="M33.6154528,31.445 L33.6154528,20.9342126 L33.628622,20.9123819 C34.2476181,18.840315 35.4140157,15.0112008 31.8030118,8.89521654 L29.4899409,12.6925394 L30.4173819,14.6151772 L26.1601181,16.6366535 L26.1203346,16.6170079 C25.8734646,16.4946457 25.5946457,16.4300197 25.3142913,16.4300197 C24.4620079,16.4300197 23.7338189,17.0179921 23.620315,17.7976772 L23.6134055,17.8460039 L16.3694291,21.2386614 L17.1296063,22.8038386 L18.0390748,22.413248 L18.0390748,26.5347441 L16.5641732,26.5347441 L16.5641732,31.445 L14.5744488,31.445 L14.5744488,32.4401378 L35.4140157,32.4401378 L35.4140157,31.445 L33.6154528,31.445 Z M24.4632874,17.7837795 L24.4632874,17.7837795 C24.5419094,17.5091929 24.7829724,17.285 25.0771457,17.2125591 C25.1556693,17.1932087 25.2353346,17.1834843 25.3142913,17.1834843 C25.6009449,17.1834843 25.8710827,17.3145079 26.0366929,17.5341339 C26.1879724,17.7348031 26.2348425,17.9891929 26.165315,18.2323031 C26.0866929,18.5068504 25.8456299,18.7311024 25.5514567,18.8035827 C25.4729331,18.8228346 25.3932677,18.8325984 25.3142913,18.8325984 C25.0276575,18.8325984 24.7574803,18.7015354 24.5919094,18.4819685 C24.4406299,18.2812992 24.3937598,18.0268504 24.4632874,17.7837795 L24.4632874,17.7837795 Z M25.3062598,26.0516339 L25.3062598,26.0516339 L24.0184646,24.2931496 L25.2100197,19.653878 L25.2435433,19.5860236 L25.3850591,19.5860236 L26.5940748,24.2932677 L25.3062598,26.0516339 Z M26.8523228,25.2989961 L26.8523228,25.2989961 L27.8671654,29.2507677 L27.7052165,29.3275 L25.8036614,26.7309449 L26.8523228,25.2989961 Z M24.8089173,26.7309449 L24.8089173,26.7309449 L22.9072047,29.3275 L22.7452165,29.2507677 L23.7602756,25.2989961 L24.8089173,26.7309449 Z M19.7599016,31.445 L19.7599016,31.445 L19.7599016,26.5347441 L18.3340945,26.5347441 L18.3340945,22.2699409 L24.4362402,19.356122 L21.3312795,31.445 L19.7599016,31.445 Z M22.3514764,31.445 L22.3514764,31.445 L25.3062598,27.4102559 L28.2610433,31.445 L22.3514764,31.445 Z M33.3293701,31.445 L33.3293701,31.445 L29.281122,31.445 L26.1797638,19.3686811 L26.2384055,19.3337402 C26.676378,19.0731693 26.9592323,18.6523228 27.0147441,18.1790157 L27.0207283,18.1288583 L31.1632087,16.1617913 L33.3293701,20.7872244 L33.3293701,31.445 Z" id="path52" fill="#FFFFFF"></path>
                <path d="M43.578563,38.7892323 C46.4336417,34.9421063 48.1249409,30.1820669 48.1249409,25.0340157 C48.1249409,12.28 37.7489567,1.9040748 24.9950197,1.9040748 C12.241063,1.9040748 1.86507874,12.28 1.86507874,25.0340157 C1.86507874,37.7878543 12.241063,48.1638189 24.9950197,48.1638189 C32.5699803,48.1638189 39.3060039,44.5036811 43.5276181,38.8589961 L43.578563,38.8589961 L43.578563,38.7892323 Z M40.0354331,41.808189 L40.0354331,41.808189 C39.7925394,42.0262008 39.5454528,42.2396457 39.2932283,42.4471063 L37.8169882,42.4471063 L38.6574409,41.6345472 L38.6574409,38.8589961 L40.0354331,38.8589961 L40.0354331,41.808189 Z M10.0933661,41.9313386 L10.0933661,41.9313386 L10.409252,41.6354921 L10.409252,38.8589961 L11.7872441,38.8589961 L11.7872441,41.5512795 L10.8690551,42.4471063 L10.6967913,42.4471063 C10.4924016,42.2789173 10.2916929,42.106437 10.0933661,41.9313386 Z M11.9840354,41.634311 L11.9840354,41.634311 L11.9840354,38.8589961 L13.3510433,38.8589961 L13.3510433,42.4471063 L11.1509449,42.4471063 L11.9840354,41.634311 Z M10.9539173,42.6393307 L10.9539173,42.6393307 L13.3510433,42.6393307 L13.3510433,44.3282874 C12.511811,43.8199016 11.7087795,43.2575984 10.9455512,42.6475394 L10.9539173,42.6393307 Z M23.4473425,41.551063 L23.4473425,41.551063 L22.5205512,42.4471063 L21.2288386,42.4471063 L22.0693504,41.6345472 L22.0693504,38.8589961 L23.4473425,38.8589961 L23.4473425,41.551063 Z M23.6442126,41.6345472 L23.6442126,41.6345472 L23.6442126,38.8589961 L24.7791142,38.8589961 L24.7791142,42.4471063 L22.8036811,42.4471063 L23.6442126,41.6345472 Z M21.8725591,41.551063 L21.8725591,41.551063 L20.9457677,42.4471063 L19.6540551,42.4471063 L20.4945669,41.6345472 L20.4945669,38.8589961 L21.8725591,38.8589961 L21.8725591,41.551063 Z M20.2976969,41.551063 L20.2976969,41.551063 L19.3709843,42.4471063 L18.079252,42.4471063 L18.9197835,41.6345472 L18.9197835,38.8589961 L20.2976969,38.8589961 L20.2976969,41.551063 Z M18.7229134,41.551063 L18.7229134,41.551063 L17.796122,42.4471063 L16.5044685,42.4471063 L17.3449803,41.6345472 L17.3449803,38.8589961 L18.7229134,38.8589961 L18.7229134,41.551063 Z M17.1481299,41.551063 L17.1481299,41.551063 L16.2213386,42.4471063 L14.929685,42.4471063 L15.7701378,41.6345472 L15.7701378,38.8589961 L17.1481299,38.8589961 L17.1481299,41.551063 Z M15.5733268,41.551063 L15.5733268,41.551063 L14.6465551,42.4471063 L13.9277953,42.4471063 L13.9277953,38.8589961 L15.5733268,38.8589961 L15.5733268,41.551063 Z M14.642874,42.6393307 L14.642874,42.6393307 L15.5733268,43.585374 L15.5733268,45.5090157 C15.0119882,45.2496654 14.4631299,44.9679921 13.9277953,44.6649803 L13.9277953,42.6393307 L14.642874,42.6393307 Z M14.9189567,42.6393307 L14.9189567,42.6393307 L16.2176575,42.6393307 L17.1481299,43.585374 L17.1481299,46.1653937 C16.6814173,45.9915354 16.2217323,45.8031496 15.7701378,45.5998031 L15.7701378,43.5045669 L14.9189567,42.6393307 Z M16.4937598,42.6393307 L16.4937598,42.6393307 L17.7924409,42.6393307 L18.7229134,43.585374 L18.7229134,46.6863583 C18.2572638,46.5513189 17.7977559,46.4016535 17.3449803,46.2377756 L17.3449803,43.5045669 L16.4937598,42.6393307 Z M18.0685433,42.6393307 L18.0685433,42.6393307 L19.3672441,42.6393307 L20.2976969,43.585374 L20.2976969,47.0814764 C19.8330512,46.9825984 19.3734252,46.8698228 18.9197835,46.7426575 L18.9197835,43.5045669 L18.0685433,42.6393307 Z M19.6433858,42.6393307 L19.6433858,42.6393307 L20.9420276,42.6393307 L21.8725591,43.585374 L21.8725591,47.3578937 C21.4086811,47.2933465 20.948937,47.2159449 20.4945669,47.1234843 L20.4945669,43.5045669 L19.6433858,42.6393307 Z M21.218189,42.6393307 L21.218189,42.6393307 L22.5168701,42.6393307 L23.4473425,43.585374 L23.4473425,47.521063 C22.9841535,47.4894882 22.5245276,47.4447835 22.0693504,47.3855315 L22.0693504,43.5045669 L21.218189,42.6393307 Z M22.7929724,42.6393307 L22.7929724,42.6393307 L24.7791142,42.6393307 L24.7791142,47.5724606 C24.3985039,47.568878 24.0201378,47.5559449 23.6442126,47.533622 L23.6442126,43.5045669 L22.7929724,42.6393307 Z M34.9500394,41.551063 L34.9500394,41.551063 L34.023248,42.4471063 L32.7315354,42.4471063 L33.5720472,41.6345472 L33.5720472,38.8589961 L34.9500394,38.8589961 L34.9500394,41.551063 Z M35.1468307,41.6345472 L35.1468307,41.6345472 L35.1468307,38.8589961 L36.2122244,38.8589961 L36.2122244,42.4471063 L34.3063189,42.4471063 L35.1468307,41.6345472 Z M33.3751772,41.551063 L33.3751772,41.551063 L32.4484646,42.4471063 L31.1567323,42.4471063 L31.9972638,41.6345472 L31.9972638,38.8589961 L33.3751772,38.8589961 L33.3751772,41.551063 Z M31.8003937,41.551063 L31.8003937,41.551063 L30.8736024,42.4471063 L29.5819488,42.4471063 L30.4224606,41.6345472 L30.4224606,38.8589961 L31.8003937,38.8589961 L31.8003937,41.551063 Z M30.2256102,41.551063 L30.2256102,41.551063 L29.2988189,42.4471063 L28.0071654,42.4471063 L28.8476181,41.6345472 L28.8476181,38.8589961 L30.2256102,38.8589961 L30.2256102,41.551063 Z M28.6508071,41.551063 L28.6508071,41.551063 L27.7240354,42.4471063 L26.4323031,42.4471063 L27.2728346,41.6345472 L27.2728346,38.8589961 L28.6508071,38.8589961 L28.6508071,41.551063 Z M27.0759646,41.551063 L27.0759646,41.551063 L26.1492323,42.4471063 L25.3558661,42.4471063 L25.3558661,38.8589961 L27.0759646,38.8589961 L27.0759646,41.551063 Z M26.1454921,42.6393307 L26.1454921,42.6393307 L27.0759646,43.585374 L27.0759646,47.4782677 C26.5083661,47.5304921 25.9347441,47.5615157 25.3558661,47.5706102 L25.3558661,42.6393307 L26.1454921,42.6393307 Z M26.4216535,42.6393307 L26.4216535,42.6393307 L27.7203543,42.6393307 L28.6508071,43.585374 L28.6508071,47.2772244 C28.1957087,47.3517717 27.7365748,47.4139764 27.2728346,47.460748 L27.2728346,43.5045669 L26.4216535,42.6393307 Z M27.996437,42.6393307 L27.996437,42.6393307 L29.2951378,42.6393307 L30.2256102,43.585374 L30.2256102,46.9612205 C29.7713976,47.0695866 29.3119291,47.1642126 28.8476181,47.2445079 L28.8476181,43.5045669 L27.996437,42.6393307 Z M29.5712402,42.6393307 L29.5712402,42.6393307 L30.8699213,42.6393307 L31.8003937,43.585374 L31.8003937,46.5244094 C31.3470669,46.6682677 30.8875,46.7976772 30.4224606,46.9130709 L30.4224606,43.5045669 L29.5712402,42.6393307 Z M31.1460236,42.6393307 L31.1460236,42.6393307 L32.4447244,42.6393307 L33.3751772,43.585374 L33.3751772,45.9587795 C32.9229724,46.1405709 32.4633465,46.3076378 31.9972638,46.4603543 L31.9972638,43.5045669 L31.1460236,42.6393307 Z M32.7208661,42.6393307 L32.7208661,42.6393307 L34.0195079,42.6393307 L34.9500394,43.585374 L34.9500394,45.2538976 C34.498937,45.4768898 34.0394882,45.6851772 33.5720472,45.878189 L33.5720472,43.5045669 L32.7208661,42.6393307 Z M34.2956693,42.6393307 L34.2956693,42.6393307 L36.2122244,42.6393307 L36.2122244,44.5809055 C35.8630315,44.7820669 35.5074803,44.9732874 35.1468307,45.1559252 L35.1468307,43.5045669 L34.2956693,42.6393307 Z M37.5301772,42.6393307 L37.5301772,42.6393307 L38.1830315,43.3030118 C37.7305512,43.6305709 37.2657283,43.9418701 36.7889173,44.2357677 L36.7889173,42.6393307 L37.5301772,42.6393307 Z M36.7889173,42.4471063 L36.7889173,42.4471063 L36.7889173,38.8589961 L38.4606496,38.8589961 L38.4606496,41.551063 L37.5338583,42.4471063 L36.7889173,42.4471063 Z M37.8062795,42.6393307 L37.8062795,42.6393307 L39.054626,42.6393307 C38.821378,42.8259843 38.5844685,43.0082874 38.3437402,43.1857283 L37.8062795,42.6393307 Z M6.76998031,38.2823031 L6.76998031,38.2823031 C6.60257874,38.0526181 6.43858268,37.8203346 6.27970472,37.5841732 L6.46151575,37.5370866 L6.25801181,37.5512598 C6.24527559,37.5323425 6.23301181,37.5131496 6.2203937,37.4941732 C6.29165354,37.4358071 6.36167323,37.374311 6.42909449,37.308248 L6.97732283,37.308248 C7.28055118,37.6052756 7.62683071,37.8401378 7.97665354,37.861122 L7.97665354,37.8651378 C7.98507874,37.8651378 7.99350394,37.8633661 8.00187008,37.8631299 C8.01029528,37.8633268 8.01866142,37.8651378 8.02708661,37.8651378 L8.02708661,37.861122 C8.37690945,37.8401378 8.72318898,37.6052756 9.02635827,37.308248 L9.57464567,37.308248 C9.6667126,37.3985827 9.76275591,37.4834055 9.86190945,37.5581693 L9.8609252,37.5593504 L9.54224409,37.5371457 L9.88330709,37.6255315 L10.0634843,37.741378 L10.2890748,37.988563 L10.1666535,37.7604528 L10.1752559,37.7512008 C10.3228937,37.8218307 10.4738386,37.8651969 10.6250591,37.8651969 C10.9918898,37.8651969 11.3568701,37.6203346 11.6746457,37.3083071 L12.2231102,37.3083071 C12.3151772,37.3986417 12.4112205,37.4834646 12.510374,37.5582283 L12.5093898,37.5594094 L12.1907677,37.5372047 L12.5318307,37.6255906 L12.7119488,37.741437 L12.9375984,37.988622 L12.8151772,37.7605118 L12.8237598,37.7512598 C12.9713583,37.8218898 13.1223031,37.8652559 13.273563,37.8652559 C13.4248425,37.8652559 13.5757874,37.8218898 13.7234843,37.7512598 L13.7320276,37.7605118 L13.6095472,37.988622 L13.8351969,37.741437 L14.015315,37.6255906 L14.356437,37.5372047 L14.0377559,37.5594094 L14.0367717,37.5582283 C14.1358661,37.4834646 14.2319094,37.3986417 14.3240354,37.3083071 L14.8724409,37.3083071 C15.1902165,37.6203346 15.5552559,37.8651969 15.9220276,37.8651969 C16.0733661,37.8651969 16.224252,37.8218307 16.3719488,37.7512008 L16.3804331,37.7604528 L16.2580512,37.988563 L16.4836614,37.741378 L16.6637795,37.6255315 L17.0048819,37.5371457 L16.6862205,37.5593504 L16.6852362,37.5581693 C16.7843307,37.4834055 16.8803543,37.3985827 16.9724803,37.308248 L17.5207874,37.308248 C17.823937,37.6052756 18.1702953,37.8401378 18.52,37.861122 L18.52,37.8651378 C18.5284843,37.8651378 18.5368504,37.8633661 18.5452756,37.8631299 C18.5537008,37.8633268 18.5620669,37.8651378 18.5704921,37.8651378 L18.5704921,37.861122 C18.9202559,37.8401378 19.2665945,37.6052756 19.5697638,37.308248 L20.1179921,37.308248 C20.2101181,37.3985827 20.3061614,37.4834055 20.405315,37.5581693 L20.4043307,37.5593504 L20.0857087,37.5371457 L20.4267717,37.6255315 L20.6068898,37.741378 L20.8325394,37.988563 L20.7101772,37.7604528 L20.7187008,37.7512008 C20.8662992,37.8218307 21.0172441,37.8651969 21.1685039,37.8651969 C21.5353346,37.8651969 21.9003346,37.6203346 22.2181102,37.3083071 L22.7665157,37.3083071 C22.8586417,37.3986417 22.9546654,37.4834646 23.0538386,37.5582283 L23.0528543,37.5594094 L22.7341732,37.5372047 L23.0752756,37.6255906 L23.2554134,37.741437 L23.481063,37.988622 L23.3586417,37.7605118 L23.3671654,37.7512598 C23.5051575,37.8172638 23.6459449,37.8578346 23.7872441,37.8629134 L23.7872441,37.8652559 C23.7922047,37.8652559 23.7971654,37.8640748 23.802126,37.8640748 C23.8071063,37.8641929 23.8120669,37.8652559 23.8170276,37.8652559 L23.8170276,37.8629134 C23.9583661,37.8578346 24.0991535,37.8172638 24.2370866,37.7512598 L24.2456299,37.7605118 L24.1232677,37.988622 L24.3488583,37.741437 L24.5289961,37.6255906 L24.8700984,37.5372047 L24.5514173,37.5594094 L24.5504331,37.5582283 C24.6495866,37.4834646 24.7456299,37.3986417 24.8377559,37.3083071 L25.3861614,37.3083071 C25.703937,37.6203346 26.0689173,37.8651969 26.435748,37.8651969 C26.5870276,37.8651969 26.7379134,37.8218307 26.8856102,37.7512008 L26.8941535,37.7604528 L26.7717913,37.988563 L26.9973228,37.741378 L27.1774409,37.6255315 L27.5186024,37.5371457 L27.1998819,37.5593504 L27.1988976,37.5581693 C27.2979331,37.4834055 27.3940354,37.3985827 27.4861024,37.308248 L28.0343898,37.308248 C28.3375984,37.6052756 28.6838976,37.8401378 29.0336614,37.861122 L29.0336614,37.8651378 C29.0420866,37.8651378 29.0505118,37.8633661 29.058878,37.8631299 C29.0673031,37.8633268 29.0757283,37.8651378 29.0841535,37.8651378 L29.0841535,37.861122 C29.4339173,37.8401378 29.7802559,37.6052756 30.0834252,37.308248 L30.6316535,37.308248 C30.7237795,37.3985827 30.8198228,37.4834055 30.9189173,37.5581693 L30.9179331,37.5593504 L30.599252,37.5371457 L30.9404134,37.6255315 L31.1205512,37.741378 L31.3461417,37.988563 L31.2237205,37.7604528 L31.2322638,37.7512008 C31.3799606,37.8218307 31.5308465,37.8651969 31.682126,37.8651969 C31.8333858,37.8651969 31.9842717,37.8218307 32.1319685,37.7512008 L32.1405118,37.7604528 L32.0181496,37.988563 L32.2436811,37.741378 L32.423878,37.6255315 L32.7649803,37.5371457 L32.4462992,37.5593504 L32.445315,37.5581693 C32.5444291,37.4834055 32.6405118,37.3985827 32.7326378,37.308248 L33.2810433,37.308248 C33.5987598,37.6202756 33.9637992,37.8651378 34.3306299,37.8651378 C34.4819094,37.8651378 34.6327953,37.8217717 34.7804921,37.7511417 L34.7890354,37.7603937 L34.6666142,37.9885039 L34.8922047,37.7413189 L35.0723228,37.6254724 L35.4134843,37.5370866 L35.0948228,37.5592913 L35.0938386,37.5581102 C35.1929331,37.4833465 35.2889764,37.3985236 35.3811024,37.308189 L35.9293307,37.308189 C36.2325394,37.6052165 36.5788386,37.8400787 36.9286024,37.861063 L36.9286024,37.8650787 C36.9370276,37.8650787 36.9454528,37.8633071 36.9538189,37.8630709 C36.9622441,37.8632677 36.9706693,37.8650787 36.9790945,37.8650787 L36.9790945,37.861063 C37.3287992,37.8400787 37.6751575,37.6052165 37.9783661,37.308189 L38.5266535,37.308189 C38.6187205,37.3985236 38.7147638,37.4833465 38.8138583,37.5581102 L38.812874,37.5592913 L38.4941929,37.5370866 L38.8353543,37.6254724 L39.0154921,37.7413189 L39.2410236,37.9885039 L39.1186614,37.7603937 L39.1272047,37.7511417 C39.2749016,37.8217717 39.4257874,37.8651378 39.5770669,37.8651378 C39.9438976,37.8651378 40.308878,37.6202756 40.6266535,37.308248 L41.1750591,37.308248 C41.267185,37.3985827 41.3632283,37.4834055 41.4623819,37.5581693 L41.4612008,37.5593504 L41.1425787,37.5371457 L41.4836811,37.6255315 L41.6638189,37.741378 L41.8894094,37.988563 L41.7670472,37.7604528 L41.7755709,37.7512008 C41.9232283,37.8218307 42.0741732,37.8651969 42.2254331,37.8651969 C42.3767126,37.8651969 42.5275984,37.8218307 42.6752953,37.7512008 L42.6838976,37.7604528 L42.5614173,37.988563 L42.7870079,37.741378 L42.967185,37.6255315 L43.3083071,37.5371457 L42.989626,37.5593504 L42.9886417,37.5581693 C43.0877362,37.4834055 43.1837795,37.3985827 43.2759055,37.308248 L43.8284843,37.308248 C43.8415354,37.3209055 43.8548819,37.3329724 43.867874,37.345748 C43.6598031,37.6635827 43.4439173,37.9757874 43.2204921,38.2823031 L6.76998031,38.2823031 Z M8.63759843,40.5270866 L8.63759843,40.5270866 C8.13332677,39.9949606 7.65490157,39.438189 7.2038189,38.8589961 L8.63759843,38.8589961 L8.63759843,40.5270866 Z M6.10834646,37.3240354 L6.10834646,37.3240354 C6.10488189,37.3187992 6.10137795,37.3135433 6.09791339,37.308248 L6.12385827,37.308248 L6.10834646,37.3240354 Z M6.12643701,37.3515551 L6.12643701,37.3515551 L6.15187008,37.308248 L6.26899606,37.308248 C6.23283465,37.3416142 6.19679134,37.3735827 6.16102362,37.4040551 C6.1494685,37.3865354 6.13791339,37.3690748 6.12643701,37.3515551 L6.12643701,37.3515551 Z M6.49822835,36.4787205 L6.49822835,36.4787205 L6.38864173,36.3124409 L6.33612205,36.0175394 L6.31374016,36.2830906 C6.16202756,36.0037598 6.02348425,35.6524409 5.99875984,35.2731693 C5.99501969,35.2154134 5.99584646,35.1624016 5.99501969,35.1077165 L6.00612205,35.1081102 L6.13401575,35.3341142 L6.05584646,35.0302756 L6.06761811,34.8407283 L6.2090748,34.5670276 L6.0219685,34.7834646 L6.00651575,34.7826772 C6.04088583,34.432126 6.1373622,34.1633465 6.25470472,33.9787598 L6.26179134,33.9845079 L6.17927165,34.2247244 L6.36066929,33.9533661 L6.51937008,33.8174409 L6.84212598,33.6896654 L6.53041339,33.749311 L6.4982874,33.723189 C6.56702756,33.681122 6.63801181,33.658189 6.7073622,33.658189 C6.80389764,33.658189 6.90271654,33.6998622 6.99338583,33.7787205 C7.12937008,33.8970079 7.2644685,34.1219488 7.34537402,34.4480906 L7.34360236,34.4482874 L7.16106299,34.2415551 L7.28165354,34.4762008 L7.3430315,34.7625 L7.29923228,35.0158465 L7.40307087,34.7862205 C7.41830709,34.9344882 7.42472441,35.0954134 7.41584646,35.2735827 C7.40334646,35.5245079 7.33651575,35.7609449 7.24996063,35.9747047 L7.24533465,35.9731299 L7.22480315,35.7168307 L7.1751378,35.9687795 L7.04226378,36.2376772 L6.84206693,36.4315354 L7.09600394,36.2731693 L7.10929134,36.2777362 C7.09590551,36.3024016 7.08234252,36.3236024 7.06872047,36.3471063 L7.05822835,36.3423031 C6.94015748,36.5229331 6.82135827,36.6873622 6.70283465,36.8361811 C6.63588583,36.7521063 6.56879921,36.6624213 6.50190945,36.5680118 L6.50501969,36.5666339 L6.75635827,36.7025197 L6.49822835,36.4787205 Z M6.70690945,37.0198228 L6.70690945,37.0198228 L6.7082874,37.018248 C6.73620079,37.0512205 6.76576772,37.0834843 6.79478346,37.1159646 L6.6113189,37.1159646 C6.64167323,37.0820276 6.67212598,37.0482087 6.70125984,37.0137795 L6.70690945,37.0198228 Z M7.13651575,37.308248 L7.13651575,37.308248 L8.86722441,37.308248 C8.55663386,37.5946063 8.26011811,37.7541535 8.00187008,37.7637992 C7.74362205,37.7541535 7.44704724,37.5946063 7.13651575,37.308248 L7.13651575,37.308248 Z M8.96141732,36.2378346 L8.96141732,36.2378346 L8.82854331,35.968937 L8.77887795,35.7169882 L8.75834646,35.9732874 L8.75366142,35.9748622 C8.66716535,35.7611024 8.60037402,35.5246654 8.58787402,35.2737402 C8.57895669,35.0955709 8.58537402,34.9346457 8.60061024,34.786378 L8.70444882,35.0160039 L8.66070866,34.7626575 L8.72202756,34.4763583 L8.84255906,34.2417126 L8.66007874,34.4484449 L8.65830709,34.448248 C8.73915354,34.1221063 8.87435039,33.8971654 9.01029528,33.778878 C9.10096457,33.7000197 9.19978346,33.6583465 9.29625984,33.6583465 C9.36566929,33.6583465 9.43665354,33.6812795 9.50535433,33.7233465 L9.47330709,33.7494685 L9.16155512,33.6898228 L9.48425197,33.8175984 L9.64295276,33.9535236 L9.82440945,34.2248819 L9.74188976,33.9846654 L9.74897638,33.9789173 C9.86625984,34.1635039 9.96273622,34.4322835 9.99716535,34.7828346 L9.98165354,34.783622 L9.7946063,34.567185 L9.93606299,34.8408858 L9.94783465,35.0304331 L9.86966535,35.3342717 L9.99755906,35.1082677 L10.0086024,35.107874 C10.007815,35.1625591 10.0086614,35.2155709 10.0048622,35.2733268 C9.98019685,35.6525984 9.84165354,36.0039567 9.68988189,36.283248 L9.66755906,36.0176969 L9.615,36.3125984 L9.50545276,36.478878 L9.24726378,36.702815 L9.49860236,36.5669291 L9.5017126,36.5683071 C9.43476378,36.6627165 9.36773622,36.7524016 9.30084646,36.8364764 C9.18232283,36.6876575 9.06340551,36.5232283 8.9453937,36.3425984 L8.93490157,36.3474016 C8.92127953,36.3238976 8.90771654,36.3026969 8.89433071,36.2780315 L8.90761811,36.2734646 L9.16155512,36.4318307 L8.96141732,36.2378346 Z M9.29683071,37.0198228 L9.29683071,37.0198228 L9.30246063,37.0138386 C9.33153543,37.0482677 9.3621063,37.0820866 9.39240157,37.1160236 L9.20887795,37.1160236 C9.23795276,37.0835433 9.26748031,37.0512795 9.29537402,37.0183071 L9.29683071,37.0198228 Z M10.2798622,37.6120276 L10.2798622,37.6120276 L10.0038189,37.4345276 L9.87988189,37.308248 L11.5162205,37.308248 C11.195315,37.6046063 10.889252,37.7654724 10.6250394,37.7654724 C10.5070669,37.7654724 10.380689,37.7334449 10.2483858,37.6718504 L10.2545669,37.6651378 L10.5692913,37.6964567 L10.2798622,37.6120276 Z M9.94555118,37.4675 L9.94555118,37.4675 L9.93511811,37.478878 C9.8692126,37.428937 9.80214567,37.3705709 9.73468504,37.308248 L9.85187008,37.308248 L9.94555118,37.4675 Z M11.6098425,36.2378346 L11.6098425,36.2378346 L11.4769882,35.968937 L11.4273228,35.7169882 L11.4067913,35.9732874 L11.4021063,35.9748622 C11.3156102,35.7611024 11.2488189,35.5246654 11.2363189,35.2737402 C11.2274016,35.0955709 11.2338189,34.9346457 11.2490551,34.786378 L11.3528937,35.0160039 L11.3091339,34.7626575 L11.3704724,34.4763583 L11.4910039,34.2417126 L11.3084646,34.4484449 L11.3066929,34.448248 C11.3876181,34.1221063 11.5227559,33.8971654 11.6586811,33.778878 C11.7493701,33.7000197 11.848189,33.6583465 11.9447244,33.6583465 C12.0140748,33.6583465 12.085,33.6812795 12.1537402,33.7233465 L12.1216535,33.7494685 L11.8099606,33.6898228 L12.1326575,33.8175984 L12.2913583,33.9535236 L12.472815,34.2248819 L12.3902362,33.9846654 L12.3973228,33.9789173 C12.5146654,34.1635039 12.6112008,34.4322835 12.6456299,34.7828346 L12.6300591,34.783622 L12.4429528,34.567185 L12.5844685,34.8408858 L12.5962402,35.0304331 L12.5180709,35.3342717 L12.6459646,35.1082677 L12.6570669,35.107874 C12.6562795,35.1625591 12.6570669,35.2155709 12.6532677,35.2733268 C12.6285433,35.6525984 12.4900591,36.0039567 12.3382677,36.283248 L12.3159646,36.0176969 L12.2633858,36.3125984 L12.1538583,36.478878 L11.8956102,36.702815 L12.1469882,36.5669291 L12.1501181,36.5683071 C12.0831496,36.6627165 12.0160827,36.7524016 11.9491929,36.8364764 C11.8307283,36.6876575 11.7118701,36.5232283 11.5937992,36.3425984 L11.583248,36.3474016 C11.569685,36.3238976 11.556063,36.3026969 11.5426772,36.2780315 L11.5560236,36.2734646 L11.8099606,36.4318307 L11.6098425,36.2378346 Z M11.9452559,37.0198228 L11.9452559,37.0198228 L11.9509055,37.0138386 C11.9799803,37.0482677 12.0105512,37.0820866 12.0408465,37.1160236 L11.8572638,37.1160236 C11.8862795,37.0834843 11.9159055,37.0512795 11.9438189,37.0183071 L11.9452559,37.0198228 Z M13.8948031,37.4345276 L13.8948031,37.4345276 L13.6187008,37.6120276 L13.3292126,37.6964567 L13.6440354,37.6651378 L13.6501772,37.6718504 C13.517874,37.7334449 13.3915551,37.7654724 13.2734646,37.7654724 C13.1555118,37.7654724 13.0291339,37.7334449 12.8968307,37.6718504 L12.9030118,37.6651378 L13.2177362,37.6964567 L12.9282874,37.6120276 L12.6522047,37.4345276 L12.5283268,37.308248 L14.018622,37.308248 L13.8948031,37.4345276 Z M14.0466339,37.308248 L14.0466339,37.308248 L14.1638189,37.308248 C14.0963583,37.3705709 14.0293504,37.428937 13.9635039,37.478878 L13.9530118,37.4675 L14.0466339,37.308248 Z M12.5939961,37.4675 L12.5939961,37.4675 L12.583563,37.478878 C12.5176575,37.428937 12.4506496,37.3705709 12.3831299,37.308248 L12.500315,37.308248 L12.5939961,37.4675 Z M14.3931102,36.4787205 L14.3931102,36.4787205 L14.2834646,36.3124409 L14.2309449,36.0175394 L14.208563,36.2830906 C14.0568504,36.0037598 13.9183071,35.6524409 13.8935827,35.2731693 C13.8898425,35.2154134 13.8906693,35.1624016 13.8898425,35.1077165 L13.9008858,35.1081102 L14.0288386,35.3341142 L13.9506693,35.0302756 L13.9625,34.8407283 L14.1038976,34.5670276 L13.9167913,34.7834646 L13.9013386,34.7826772 C13.9357087,34.432126 14.0322441,34.1633465 14.1495276,33.9787598 L14.1566142,33.9845079 L14.0740354,34.2247244 L14.2554921,33.9533661 L14.4141929,33.8174409 L14.7369488,33.6896654 L14.4252362,33.749311 L14.3931102,33.723189 C14.4618504,33.681122 14.5328346,33.658189 14.6022441,33.658189 C14.6987205,33.658189 14.7975394,33.6998622 14.8882087,33.7787205 C15.0241929,33.8970079 15.1592913,34.1219488 15.2401575,34.4480906 L15.2385827,34.4482874 L15.0560433,34.2415551 L15.1766339,34.4762008 L15.2379528,34.7625 L15.1942126,35.0158465 L15.2979921,34.7862205 C15.3132283,34.9345276 15.3196457,35.0954134 15.3107874,35.2735827 C15.2983268,35.5245079 15.2314961,35.7609449 15.145,35.9747047 L15.140315,35.9731299 L15.1197244,35.7168307 L15.0701181,35.9687795 L14.9372047,36.2376772 L14.7370472,36.4315354 L14.9909252,36.2731693 L15.0043307,36.2777362 C14.9908858,36.3024016 14.9772638,36.3235433 14.9637008,36.3470472 L14.9532087,36.3423031 C14.8351378,36.5229331 14.7162795,36.6873622 14.597815,36.8361811 C14.5308661,36.7521063 14.4637795,36.6624213 14.3968898,36.5680118 L14.4,36.5666339 L14.6513386,36.7025197 L14.3931102,36.4787205 Z M14.6017323,37.0198228 L14.6017323,37.0198228 L14.6031102,37.018248 C14.6310236,37.0512205 14.6606496,37.0834252 14.6897244,37.1159646 L14.5061417,37.1159646 C14.5364961,37.0820276 14.5669488,37.0482087 14.5960827,37.0137795 L14.6017323,37.0198228 Z M16.543248,37.4345276 L16.543248,37.4345276 L16.2671457,37.6120276 L15.9776575,37.6964567 L16.2924803,37.6651378 L16.298563,37.6718504 C16.1663189,37.7334449 16.0399409,37.7654724 15.9219094,37.7654724 C15.6577559,37.7654724 15.3516929,37.6046063 15.0307874,37.308248 L16.6670669,37.308248 L16.543248,37.4345276 Z M16.6950787,37.308248 L16.6950787,37.308248 L16.8122638,37.308248 C16.7448622,37.3705709 16.6777756,37.428937 16.6119291,37.478878 L16.6014567,37.4675 L16.6950787,37.308248 Z M17.0414961,36.4787205 L17.0414961,36.4787205 L16.9318898,36.3124409 L16.8794488,36.0175394 L16.8570079,36.2830906 C16.7052953,36.0037992 16.5667323,35.6524409 16.5420276,35.2731693 C16.5382874,35.2154134 16.5390551,35.1624016 16.5382874,35.1077165 L16.5493307,35.1081102 L16.6772835,35.3341142 L16.5991142,35.0302756 L16.6108858,34.8407283 L16.7523228,34.5670276 L16.5652362,34.7834646 L16.5497244,34.7826772 C16.5841535,34.432126 16.6806299,34.1633465 16.7979724,33.9787598 L16.8050591,33.9845079 L16.7225394,34.2247244 L16.903937,33.9533661 L17.0626969,33.8174409 L17.3853346,33.6896654 L17.0736811,33.749311 L17.0415354,33.723189 C17.1102953,33.681122 17.1812205,33.658189 17.2506299,33.658189 C17.3471654,33.658189 17.4459843,33.6998622 17.5365945,33.7787205 C17.6725787,33.8970079 17.8077953,34.1219488 17.8885827,34.4480906 L17.886811,34.4482874 L17.7042913,34.2415551 L17.8248819,34.4762008 L17.8862008,34.7625 L17.8424606,35.0158465 L17.9462402,34.7862205 C17.9614764,34.9345276 17.9678937,35.0954134 17.9590157,35.2735827 C17.9465157,35.5245079 17.8797244,35.7609449 17.793248,35.9747047 L17.7885433,35.9731299 L17.7679724,35.7168307 L17.7183661,35.9687795 L17.5854331,36.2376772 L17.3852362,36.4315354 L17.6391732,36.2731693 L17.6525591,36.2777362 C17.6391142,36.3024016 17.6255118,36.3235433 17.6120079,36.3470472 L17.6014567,36.3423031 C17.4834449,36.5229331 17.3645276,36.6873622 17.246063,36.8361811 C17.1791142,36.7521063 17.1120866,36.6624213 17.0450787,36.5680118 L17.048248,36.5666339 L17.2995866,36.7025197 L17.0414961,36.4787205 Z M17.2501181,37.0198228 L17.2501181,37.0198228 L17.2514961,37.018248 C17.2793898,37.0512205 17.3089764,37.0834843 17.3380512,37.1159646 L17.1544685,37.1159646 C17.1848228,37.0820276 17.2153346,37.0482087 17.2444094,37.0137795 L17.2501181,37.0198228 Z M17.6797835,37.308248 L17.6797835,37.308248 L19.4104331,37.308248 C19.0999606,37.5946063 18.8033858,37.7541535 18.5451378,37.7637992 C18.2868898,37.7541535 17.990315,37.5946063 17.6797835,37.308248 Z M19.5046654,36.2378346 L19.5046654,36.2378346 L19.371811,35.968937 L19.3221457,35.7169882 L19.3016142,35.9732874 L19.2969291,35.9748622 C19.2104331,35.7611024 19.1436417,35.5246654 19.1311417,35.2737402 C19.1222244,35.0955709 19.1286417,34.934685 19.143878,34.786378 L19.2477165,35.0160039 L19.2039567,34.7626575 L19.2652953,34.4763583 L19.3858268,34.2417126 L19.2032874,34.4484449 L19.2017126,34.448248 C19.2826378,34.1221063 19.4177756,33.8971654 19.5537008,33.778878 C19.6443898,33.7000197 19.7432087,33.6583465 19.8397441,33.6583465 C19.9090945,33.6583465 19.9800197,33.6812795 20.0487598,33.7233465 L20.0166732,33.7494685 L19.7049803,33.6898228 L20.0276772,33.8175984 L20.186378,33.9535236 L20.3678346,34.2248819 L20.2852559,33.9846654 L20.2923425,33.9789173 C20.409685,34.1635039 20.5062205,34.4322835 20.5406496,34.7828346 L20.5250787,34.783622 L20.3379724,34.567185 L20.4794882,34.8408858 L20.4912598,35.0304331 L20.4130906,35.3342717 L20.5409843,35.1082677 L20.5520866,35.107874 C20.5512992,35.1625591 20.5520866,35.2155709 20.5482874,35.2733268 C20.523563,35.6525984 20.3850787,36.0039173 20.2332874,36.283248 L20.2109252,36.0176969 L20.1584646,36.3125984 L20.048878,36.478878 L19.7906299,36.702815 L20.0420079,36.5669291 L20.0451378,36.5683071 C19.9781693,36.6627165 19.9111024,36.7524016 19.8442126,36.8364764 C19.725748,36.6876575 19.6068898,36.5232283 19.4888189,36.3425984 L19.4782677,36.3473425 C19.4647047,36.3238386 19.4510827,36.3026969 19.4376969,36.2780315 L19.4510827,36.2734646 L19.7049803,36.4318307 L19.5046654,36.2378346 Z M19.8400787,37.0198228 L19.8400787,37.0198228 L19.8457283,37.0138386 C19.8748031,37.0482677 19.905374,37.0820866 19.9356693,37.1160236 L19.7521457,37.1160236 C19.7812205,37.0835433 19.8107283,37.0512795 19.8386417,37.0183071 L19.8400787,37.0198228 Z M20.8231102,37.6120276 L20.8231102,37.6120276 L20.5470276,37.4345276 L20.4231496,37.308248 L22.0594291,37.308248 C21.7385827,37.6046063 21.4325197,37.7654724 21.1682874,37.7654724 C21.0503346,37.7654724 20.9239567,37.7334449 20.7916535,37.6718504 L20.7978346,37.6651378 L21.1125591,37.6964567 L20.8231102,37.6120276 Z M20.4888189,37.4675 L20.4888189,37.4675 L20.4783268,37.478878 C20.4124213,37.428937 20.3454134,37.3705709 20.2779528,37.308248 L20.3951378,37.308248 L20.4888189,37.4675 Z M22.1531102,36.2378346 L22.1531102,36.2378346 L22.0202559,35.968937 L21.9705906,35.7169882 L21.9500591,35.9732874 L21.945374,35.9748622 C21.858878,35.7611024 21.7920276,35.5246654 21.7795866,35.2737402 C21.7706496,35.0955709 21.7770669,34.934685 21.7923031,34.786378 L21.8961024,35.0160039 L21.8524016,34.7626575 L21.9137402,34.4763583 L22.034252,34.2417126 L21.8517323,34.4484449 L21.8499606,34.448248 C21.9308268,34.1221063 22.0660236,33.8971654 22.2019488,33.778878 C22.2926181,33.7000197 22.3913976,33.6583465 22.4879331,33.6583465 C22.5572835,33.6583465 22.6283268,33.6812795 22.6970079,33.7233465 L22.6649213,33.7494685 L22.3532283,33.6898228 L22.6759252,33.8175984 L22.8346063,33.9535236 L23.0160827,34.2248819 L22.9334843,33.9846654 L22.9405709,33.9789173 C23.0579331,34.1635039 23.1544094,34.4322835 23.1888386,34.7828346 L23.1733268,34.783622 L22.9862205,34.567185 L23.1276772,34.8408858 L23.1395079,35.0304331 L23.0613386,35.3342717 L23.1892323,35.1082677 L23.2003346,35.107874 C23.1995472,35.1625591 23.2003346,35.2155709 23.1965354,35.2733268 C23.171811,35.6525984 23.0333268,36.0039173 22.8815354,36.283248 L22.8591732,36.0176969 L22.8067126,36.3125984 L22.6970669,36.478878 L22.438878,36.702815 L22.6902559,36.5669291 L22.6933858,36.5683071 C22.6264173,36.6627165 22.5593504,36.7524016 22.4924409,36.8364764 C22.3739764,36.6876575 22.2550787,36.5232283 22.1370472,36.3425984 L22.1265157,36.3474016 C22.1128937,36.3238976 22.0993307,36.3026969 22.0859449,36.2780315 L22.0993307,36.2734646 L22.3532283,36.4318307 L22.1531102,36.2378346 Z M22.4885236,37.0198228 L22.4885236,37.0198228 L22.4941732,37.0138386 C22.5232283,37.0482677 22.5538189,37.0820866 22.5841732,37.1160236 L22.4004724,37.1160236 C22.4296063,37.0834843 22.4591732,37.0512795 22.4870866,37.0183071 L22.4885236,37.0198228 Z M24.4082677,37.4345276 L24.4082677,37.4345276 L24.132185,37.6120276 L23.8426772,37.6964567 L24.1574606,37.6651378 L24.1635827,37.6718504 C24.036811,37.7309252 23.9156102,37.7619488 23.8018307,37.7645276 C23.6880709,37.7619488 23.5669291,37.7309252 23.4400787,37.6718504 L23.4462205,37.6651378 L23.7609843,37.6964567 L23.4715551,37.6120276 L23.1954528,37.4345276 L23.0715748,37.308248 L24.5320866,37.308248 L24.4082677,37.4345276 Z M24.5600984,37.308248 L24.5600984,37.308248 L24.6772835,37.308248 C24.6098228,37.3705709 24.542815,37.428937 24.4769094,37.478878 L24.4664173,37.4675 L24.5600984,37.308248 Z M23.1372638,37.4675 L23.1372638,37.4675 L23.1267717,37.478878 C23.0608661,37.428937 22.9938583,37.3705709 22.9263976,37.308248 L23.043563,37.308248 L23.1372638,37.4675 Z M24.9065157,36.4787205 L24.9065157,36.4787205 L24.7969291,36.3124409 L24.7444094,36.0175394 L24.7220472,36.2830906 C24.5702559,36.0037992 24.4317717,35.6524409 24.4071063,35.2731693 C24.4033071,35.2154134 24.4040945,35.1624016 24.4033071,35.1077165 L24.4143504,35.1081102 L24.5423031,35.3341142 L24.4641339,35.0302756 L24.4759055,34.8407283 L24.6173622,34.5670276 L24.4302559,34.7834646 L24.4147441,34.7826772 C24.4491732,34.432126 24.5456496,34.1633465 24.6630118,33.9787598 L24.6700394,33.9845079 L24.5875,34.2247244 L24.7690157,33.9533661 L24.9276575,33.8174409 L25.2503543,33.6896654 L24.9387008,33.749311 L24.9066339,33.723189 C24.975315,33.681122 25.0462402,33.658189 25.1156496,33.658189 C25.212126,33.658189 25.3109449,33.6998622 25.4016339,33.7787205 C25.5376181,33.8970079 25.6727559,34.1219488 25.753622,34.4480906 L25.7518504,34.4482874 L25.569311,34.2415551 L25.6898425,34.4762008 L25.7512205,34.7625 L25.7074213,35.0158465 L25.8113189,34.7862205 C25.8265551,34.9345276 25.8329134,35.0954134 25.8240551,35.2735827 C25.8115551,35.5245079 25.7447638,35.7609449 25.6582087,35.9747047 L25.6535236,35.9731299 L25.6329921,35.7168307 L25.5833858,35.9687795 L25.4504724,36.2376772 L25.2502559,36.4315354 L25.5041929,36.2731693 L25.5175394,36.2777362 C25.5040945,36.3024016 25.4905906,36.3235433 25.4769685,36.3470472 L25.4664764,36.3423031 C25.3484055,36.5229331 25.2295472,36.6873622 25.1110827,36.8361811 C25.0441339,36.7521063 24.9771063,36.6624213 24.9100984,36.5680118 L24.9132874,36.5666339 L25.1646063,36.7025197 L24.9065157,36.4787205 Z M25.1151575,37.0198228 L25.1151575,37.0198228 L25.1165354,37.018248 C25.1445079,37.0512205 25.1740748,37.0834252 25.2031496,37.1159646 L25.0195079,37.1159646 C25.0498622,37.0820276 25.080374,37.0482087 25.1095079,37.0137795 L25.1151575,37.0198228 Z M27.0566535,37.4345276 L27.0566535,37.4345276 L26.7806102,37.6120276 L26.491122,37.6964567 L26.8058858,37.6651378 L26.8120276,37.6718504 C26.6797835,37.7334449 26.5534055,37.7654724 26.435374,37.7654724 C26.1711614,37.7654724 25.8650984,37.6046063 25.544252,37.308248 L27.1805315,37.308248 L27.0566535,37.4345276 Z M27.2085433,37.308248 L27.2085433,37.308248 L27.3257283,37.308248 C27.2582677,37.3705709 27.1912402,37.428937 27.1253543,37.478878 L27.1148622,37.4675 L27.2085433,37.308248 Z M27.5549606,36.4787205 L27.5549606,36.4787205 L27.4453543,36.3124409 L27.3928543,36.0175394 L27.3704724,36.2830906 C27.2187008,36.0037992 27.0801575,35.6524409 27.0555512,35.2731693 C27.0516929,35.2154134 27.0525394,35.1624016 27.051752,35.1077165 L27.0627953,35.1081102 L27.190689,35.3341142 L27.1125787,35.0302756 L27.1243504,34.8407283 L27.2658071,34.5670276 L27.0786417,34.7834646 L27.063189,34.7826772 C27.0976181,34.432126 27.1940945,34.1633465 27.311437,33.9787598 L27.3184646,33.9845079 L27.2359449,34.2247244 L27.4174606,33.9533661 L27.5761024,33.8174409 L27.8987992,33.6896654 L27.5870866,33.749311 L27.5550591,33.723189 C27.6237008,33.681122 27.694685,33.658189 27.7640945,33.658189 C27.8605709,33.658189 27.9593898,33.6998622 28.0500591,33.7787205 C28.186063,33.8970079 28.3212008,34.1219488 28.4020472,34.4480906 L28.4002756,34.4482874 L28.2177362,34.2415551 L28.3383268,34.4762008 L28.3997047,34.7625 L28.3559055,35.0158465 L28.4598031,34.7862205 C28.4750394,34.9344882 28.4813976,35.0954134 28.4725197,35.2735827 C28.4600197,35.5245079 28.3932283,35.7609449 28.306752,35.9747047 L28.3020079,35.9731299 L28.2814764,35.7168307 L28.2318701,35.9687795 L28.098937,36.2376772 L27.8987402,36.4315354 L28.1526772,36.2731693 L28.1660236,36.2777362 C28.1525787,36.3024016 28.1390748,36.3236024 28.1254528,36.3471063 L28.1149016,36.3423031 C27.9968898,36.5229331 27.8780315,36.6873622 27.7595079,36.8361811 C27.6925591,36.7521063 27.6255906,36.6624213 27.5585827,36.5680118 L27.5617126,36.5666339 L27.8130906,36.7025197 L27.5549606,36.4787205 Z M27.7635827,37.0198228 L27.7635827,37.0198228 L27.7649606,37.018248 C27.7929134,37.0512205 27.8224409,37.0834843 27.8515157,37.1159646 L27.6679921,37.1159646 C27.6983465,37.0820276 27.7288583,37.0482087 27.7579921,37.0137795 L27.7635827,37.0198228 Z M28.193189,37.308248 L28.193189,37.308248 L29.9239567,37.308248 C29.6134252,37.5946063 29.3168504,37.7541535 29.0585433,37.7637992 C28.8002953,37.7541535 28.5037205,37.5946063 28.193189,37.308248 Z M30.0181299,36.2378346 L30.0181299,36.2378346 L29.8852165,35.968937 L29.8356102,35.7169882 L29.8150787,35.9732874 L29.8103937,35.9748622 C29.7238583,35.7611024 29.6570472,35.5246654 29.6445472,35.2737402 C29.635689,35.0955709 29.6420472,34.934685 29.6572835,34.786378 L29.761122,35.0160039 L29.7173819,34.7626575 L29.7787598,34.4763583 L29.8993307,34.2417126 L29.7167717,34.4484449 L29.715,34.448248 C29.7958661,34.1221063 29.9310039,33.8971654 30.0669488,33.778878 C30.1576772,33.7000197 30.256437,33.6583465 30.3529724,33.6583465 C30.4223819,33.6583465 30.4933661,33.6812795 30.5620079,33.7233465 L30.5299606,33.7494685 L30.2182677,33.6898228 L30.5409646,33.8175984 L30.6996654,33.9535236 L30.881063,34.2248819 L30.7985827,33.9846654 L30.8056299,33.9789173 C30.9230315,34.1635039 31.0194488,34.4322835 31.053878,34.7828346 L31.0384252,34.783622 L30.8512598,34.567185 L30.9927165,34.8408858 L31.0044882,35.0304331 L30.926378,35.3342717 L31.0542717,35.1082677 L31.065315,35.107874 C31.0645276,35.1625591 31.065315,35.2155709 31.0615157,35.2733268 C31.0369094,35.6525984 30.8983661,36.0039173 30.7466339,36.283248 L30.7242126,36.0176969 L30.671752,36.3125984 L30.5621063,36.478878 L30.3039173,36.702815 L30.5552953,36.5669291 L30.5584252,36.5683071 C30.4914764,36.6627165 30.4244488,36.7524016 30.3575,36.8364764 C30.2390354,36.6876575 30.1201181,36.5232283 30.0021063,36.3425984 L29.9915551,36.3474016 C29.9779331,36.3238976 29.9643898,36.3026969 29.9509843,36.2780315 L29.9643307,36.2734646 L30.2182677,36.4318307 L30.0181299,36.2378346 Z M30.353563,37.0198228 L30.353563,37.0198228 L30.3591339,37.0138386 C30.3882677,37.0482677 30.4187795,37.0820866 30.4491339,37.1160236 L30.2656102,37.1160236 C30.294685,37.0835433 30.3241929,37.0512795 30.3521654,37.0183071 L30.353563,37.0198228 Z M32.3030512,37.4345276 L32.3030512,37.4345276 L32.0270079,37.6120276 L31.7375,37.6964567 L32.0522835,37.6651378 L32.0584055,37.6718504 C31.9261614,37.7334449 31.7997835,37.7654724 31.6817717,37.7654724 C31.5637402,37.7654724 31.4373622,37.7334449 31.3051181,37.6718504 L31.3112598,37.6651378 L31.6260236,37.6964567 L31.3365354,37.6120276 L31.0604921,37.4345276 L30.9366142,37.308248 L32.4269094,37.308248 L32.3030512,37.4345276 Z M32.4549213,37.308248 L32.4549213,37.308248 L32.5721063,37.308248 C32.5046457,37.3705709 32.4376378,37.428937 32.3717323,37.478878 L32.3612402,37.4675 L32.4549213,37.308248 Z M31.0022835,37.4675 L31.0022835,37.4675 L30.9917913,37.478878 C30.9258858,37.428937 30.858878,37.3705709 30.7914173,37.308248 L30.9085433,37.308248 L31.0022835,37.4675 Z M32.8013386,36.4787205 L32.8013386,36.4787205 L32.691752,36.3124409 L32.6392323,36.0175394 L32.6168701,36.2830906 C32.4650787,36.0037598 32.3265945,35.6524409 32.3018701,35.2731693 C32.2981299,35.2154134 32.2989173,35.1624016 32.2981299,35.1077165 L32.3091732,35.1081102 L32.4370669,35.3341142 L32.3589567,35.0302756 L32.3707283,34.8407283 L32.512185,34.5670276 L32.3250787,34.7834646 L32.3095669,34.7826772 C32.3439961,34.432126 32.4404724,34.1633465 32.5578346,33.9787598 L32.5648622,33.9845079 L32.4823228,34.2247244 L32.6638386,33.9533661 L32.8224803,33.8174409 L33.1451772,33.6896654 L32.8334843,33.749311 L32.8014567,33.723189 C32.8700787,33.681122 32.941063,33.658189 33.0104724,33.658189 C33.1069488,33.658189 33.2057677,33.6998622 33.2965157,33.7787205 C33.4324409,33.8970079 33.5675787,34.1219488 33.6484449,34.4480906 L33.6468701,34.4482874 L33.4643504,34.2415551 L33.5848622,34.4762008 L33.6462402,34.7625 L33.6024409,35.0158465 L33.7063386,34.7862205 C33.7215748,34.9345276 33.7279331,35.0954134 33.7190748,35.2735827 C33.7065748,35.5245079 33.6397835,35.7609449 33.5532283,35.9747047 L33.5485433,35.9731299 L33.5280118,35.7168307 L33.4783465,35.9687795 L33.3454921,36.2376772 L33.1452756,36.4315354 L33.3992126,36.2731693 L33.4125591,36.2777362 C33.3991732,36.3024016 33.3856102,36.3236024 33.3719882,36.3471063 L33.361437,36.3423031 C33.2434252,36.5229331 33.1245669,36.6873622 33.0061024,36.8361811 C32.9391535,36.7521063 32.872126,36.6624213 32.8051181,36.5680118 L32.8083071,36.5666339 L33.059626,36.7025197 L32.8013386,36.4787205 Z M33.0099803,37.0198228 L33.0099803,37.0198228 L33.0113583,37.018248 C33.0393307,37.0512205 33.0688976,37.0834252 33.0979724,37.1159646 L32.9143307,37.1159646 C32.944685,37.0820276 32.9751969,37.0482087 33.0043307,37.0137795 L33.0099803,37.0198228 Z M34.9514764,37.4345276 L34.9514764,37.4345276 L34.6754331,37.6120276 L34.3859449,37.6964567 L34.7007087,37.6651378 L34.7068504,37.6718504 C34.5746063,37.7334449 34.4482283,37.7654724 34.3301969,37.7654724 C34.0659843,37.7654724 33.7599803,37.6046063 33.4390748,37.308248 L35.0753543,37.308248 L34.9514764,37.4345276 Z M35.1033661,37.308248 L35.1033661,37.308248 L35.2204921,37.308248 C35.1530315,37.3705709 35.0860236,37.428937 35.0201772,37.478878 L35.009685,37.4675 L35.1033661,37.308248 Z M35.4497835,36.4787205 L35.4497835,36.4787205 L35.3401378,36.3124409 L35.2876772,36.0175394 L35.2652559,36.2830906 C35.1135236,36.0037598 34.9749803,35.6524409 34.950374,35.2731693 C34.9465157,35.2154134 34.9473622,35.1624016 34.9465748,35.1077165 L34.9576181,35.1081102 L35.0855118,35.3341142 L35.0074016,35.0302756 L35.0191732,34.8407283 L35.1606299,34.5670276 L34.9734646,34.7834646 L34.9580118,34.7826772 C34.9924409,34.432126 35.0889173,34.1633465 35.2062598,33.9787598 L35.2132874,33.9845079 L35.1307677,34.2247244 L35.3122244,33.9533661 L35.4709252,33.8174409 L35.793622,33.6896654 L35.4819094,33.749311 L35.4498819,33.723189 C35.5185236,33.681122 35.5895079,33.658189 35.6589173,33.658189 C35.7553937,33.658189 35.8542126,33.6998622 35.9449409,33.7787205 C36.0808858,33.8970079 36.2160236,34.1219488 36.2968701,34.4480906 L36.2950984,34.4482874 L36.1125197,34.2415551 L36.2331102,34.4762008 L36.2944882,34.7625 L36.250689,35.0158465 L36.3545866,34.7862205 C36.3698228,34.9345276 36.3761811,35.0954134 36.3673031,35.2735827 C36.3548031,35.5245079 36.2880118,35.7609449 36.2014764,35.9747047 L36.1967913,35.9731299 L36.1762598,35.7168307 L36.1266535,35.9687795 L35.9937205,36.2376772 L35.7935236,36.4315354 L36.0474606,36.2731693 L36.0608071,36.2777362 C36.0474016,36.3024016 36.0338583,36.3236024 36.0202362,36.3471063 L36.009685,36.3423031 C35.8916732,36.5229331 35.772815,36.6873622 35.6542913,36.8361811 C35.5873425,36.7521063 35.520315,36.6624213 35.4533661,36.5680118 L35.4564961,36.5666339 L35.707874,36.7025197 L35.4497835,36.4787205 Z M35.6584055,37.0198228 L35.6584055,37.0198228 L35.6597835,37.018248 C35.6877362,37.0512205 35.7172638,37.0834843 35.7463386,37.1159646 L35.562815,37.1159646 C35.5931693,37.0820276 35.6236811,37.0482087 35.652815,37.0137795 L35.6584055,37.0198228 Z M36.0880118,37.308248 L36.0880118,37.308248 L37.8187205,37.308248 C37.508189,37.5946063 37.2116732,37.7541535 36.9533661,37.7637992 C36.6951181,37.7541535 36.3985433,37.5946063 36.0880118,37.308248 L36.0880118,37.308248 Z M37.9129528,36.2378346 L37.9129528,36.2378346 L37.7800394,35.968937 L37.7304331,35.7169882 L37.7099016,35.9732874 L37.7051575,35.9748622 C37.6186811,35.7611024 37.5518701,35.5246654 37.5393898,35.2737402 C37.5305118,35.0955709 37.5368701,34.9346457 37.5521063,34.786378 L37.6559449,35.0160039 L37.6122047,34.7626575 L37.6735827,34.4763583 L37.7941535,34.2417126 L37.6116339,34.4484449 L37.6098622,34.448248 C37.6907087,34.1221063 37.8258465,33.8971654 37.9618307,33.778878 C38.0525197,33.7000197 38.1512795,33.6583465 38.247815,33.6583465 C38.3172244,33.6583465 38.3882087,33.6812795 38.4568504,33.7233465 L38.4248031,33.7494685 L38.1131102,33.6898228 L38.435748,33.8175984 L38.5944488,33.9535236 L38.7759055,34.2248819 L38.6934252,33.9846654 L38.7004724,33.9789173 C38.8177559,34.1635039 38.9142913,34.4322835 38.9487205,34.7828346 L38.9332677,34.783622 L38.7461024,34.567185 L38.8875591,34.8408858 L38.8993307,35.0304331 L38.8212205,35.3342717 L38.9490551,35.1082677 L38.9601575,35.107874 C38.9593701,35.1625591 38.9601575,35.2155709 38.9563583,35.2733268 C38.931752,35.6525984 38.7931496,36.0039567 38.641437,36.283248 L38.6190551,36.0176969 L38.5665945,36.3125984 L38.4569488,36.478878 L38.1987598,36.702815 L38.4501378,36.5669291 L38.4532677,36.5683071 C38.3862598,36.6627165 38.3192913,36.7524016 38.2523425,36.8364764 C38.1338189,36.6876575 38.0149606,36.5232283 37.8969488,36.3425984 L37.8863976,36.3474016 C37.8727756,36.3238976 37.8592717,36.3026969 37.8458268,36.2780315 L37.8591732,36.2734646 L38.1131102,36.4318307 L37.9129528,36.2378346 Z M38.2483858,37.0198228 L38.2483858,37.0198228 L38.2539567,37.0138386 C38.2830906,37.0482677 38.3136024,37.0820866 38.3439567,37.1160236 L38.1604331,37.1160236 C38.1895079,37.0835433 38.2190157,37.0512795 38.2469882,37.0183071 L38.2483858,37.0198228 Z M39.2313583,37.6120276 L39.2313583,37.6120276 L38.955315,37.4345276 L38.831437,37.308248 L40.4677165,37.308248 C40.1468701,37.6046063 39.8408071,37.7654724 39.5765945,37.7654724 C39.458563,37.7654724 39.332185,37.7334449 39.1999409,37.6718504 L39.2060827,37.6651378 L39.5208465,37.6964567 L39.2313583,37.6120276 Z M38.8971063,37.4675 L38.8971063,37.4675 L38.8866142,37.478878 C38.8207087,37.428937 38.7537008,37.3705709 38.6861811,37.308248 L38.8034252,37.308248 L38.8971063,37.4675 Z M40.5613976,36.2378346 L40.5613976,36.2378346 L40.4284843,35.968937 L40.378878,35.7169882 L40.3583465,35.9732874 L40.3536024,35.9748622 C40.2671063,35.7611024 40.200315,35.5246654 40.187815,35.2737402 C40.1789567,35.0955709 40.185315,34.934685 40.2005512,34.786378 L40.3044488,35.0160039 L40.2606496,34.7626575 L40.3220276,34.4763583 L40.4425394,34.2417126 L40.2600197,34.4484449 L40.258248,34.448248 C40.3391142,34.1221063 40.474252,33.8971654 40.6102362,33.778878 C40.7009252,33.7000197 40.7997441,33.6583465 40.8962205,33.6583465 C40.9656299,33.6583465 41.0365551,33.6812795 41.1052362,33.7233465 L41.0731496,33.7494685 L40.7615157,33.6898228 L41.0842126,33.8175984 L41.2428543,33.9535236 L41.4243701,34.2248819 L41.3418307,33.9846654 L41.3488583,33.9789173 C41.4662205,34.1635039 41.5626969,34.4322835 41.597126,34.7828346 L41.5816142,34.783622 L41.3945079,34.567185 L41.5359646,34.8408858 L41.5477362,35.0304331 L41.4695669,35.3342717 L41.5975197,35.1082677 L41.608563,35.107874 C41.6077756,35.1625591 41.608563,35.2155709 41.6047638,35.2733268 C41.5800984,35.6525984 41.4416142,36.0039567 41.2898228,36.283248 L41.2674606,36.0176969 L41.2149409,36.3125984 L41.1053543,36.478878 L40.8471654,36.702815 L41.0984843,36.5669291 L41.1016732,36.5683071 C41.0346654,36.6627165 40.9676378,36.7524016 40.900689,36.8364764 C40.7822244,36.6876575 40.6633661,36.5232283 40.5452953,36.3425984 L40.5348031,36.3473425 C40.5211811,36.3238386 40.5076772,36.3026969 40.4942323,36.2780315 L40.5075591,36.2734646 L40.7615157,36.4318307 L40.5613976,36.2378346 Z M40.896811,37.0198228 L40.896811,37.0198228 L40.9024016,37.0138386 C40.9314764,37.0482677 40.9620472,37.0820866 40.9924016,37.1160236 L40.8087598,37.1160236 C40.8378346,37.0834843 40.8674016,37.0512795 40.895374,37.0183071 L40.896811,37.0198228 Z M42.8462992,37.4345276 L42.8462992,37.4345276 L42.5702559,37.6120276 L42.2807677,37.6964567 L42.5955315,37.6651378 L42.6016732,37.6718504 C42.4694291,37.7334449 42.3430512,37.7654724 42.2250197,37.7654724 C42.1070079,37.7654724 41.9806299,37.7334449 41.8483858,37.6718504 L41.8545079,37.6651378 L42.1692913,37.6964567 L41.8797835,37.6120276 L41.6037008,37.4345276 L41.4798819,37.308248 L42.9701772,37.308248 L42.8462992,37.4345276 Z M42.998189,37.308248 L42.998189,37.308248 L43.115315,37.308248 C43.0478543,37.3705709 42.9808858,37.428937 42.915,37.478878 L42.9045079,37.4675 L42.998189,37.308248 Z M41.5455512,37.4675 L41.5455512,37.4675 L41.5350591,37.478878 C41.4691535,37.428937 41.4021457,37.3705709 41.334685,37.308248 L41.4518701,37.308248 L41.5455512,37.4675 Z M43.3446063,36.4787205 L43.3446063,36.4787205 L43.2349606,36.3124409 L43.1825,36.0175394 L43.1600787,36.2830906 C43.0083465,36.0037992 42.8698031,35.6524409 42.8451378,35.2731693 C42.8413386,35.2154134 42.842185,35.1624016 42.8413386,35.1077165 L42.8524409,35.1081102 L42.9803346,35.3341142 L42.9022244,35.0302756 L42.9139961,34.8407283 L43.0554528,34.5670276 L42.8683465,34.7834646 L42.8528346,34.7826772 C42.8872638,34.432126 42.9836811,34.1633465 43.1010827,33.9787598 L43.1081102,33.9845079 L43.0255906,34.2247244 L43.2070472,33.9533661 L43.365748,33.8174409 L43.6884449,33.6896654 L43.3767323,33.749311 L43.3446654,33.723189 C43.4133465,33.681122 43.4843701,33.658189 43.5537402,33.658189 C43.6502165,33.658189 43.7490354,33.6998622 43.8397638,33.7787205 C43.9757087,33.8970079 44.1108465,34.1219488 44.191752,34.4480906 L44.1899803,34.4482874 L44.0074016,34.2415551 L44.1279921,34.4762008 L44.189311,34.7625 L44.1455709,35.0158465 L44.2494685,34.7862205 C44.2647047,34.9344882 44.271063,35.0954134 44.262185,35.2735827 C44.249685,35.5245079 44.1828937,35.7609449 44.0963583,35.9747047 L44.0916732,35.9731299 L44.0711417,35.7168307 L44.0215354,35.9687795 L43.8886024,36.2376772 L43.6884055,36.4315354 L43.9423425,36.2731693 L43.955689,36.2777362 C43.9422835,36.3024016 43.9287402,36.3236024 43.9151181,36.3471063 L43.9045669,36.3423031 C43.7865551,36.5229331 43.6676378,36.6873622 43.5491732,36.8361811 C43.4822835,36.7521063 43.4151969,36.6624213 43.348248,36.5680118 L43.351378,36.5666339 L43.6027559,36.7025197 L43.3446063,36.4787205 Z M43.5532874,37.0198228 L43.5532874,37.0198228 L43.5546654,37.018248 C43.5829134,37.0515551 43.6138189,37.0832677 43.6432874,37.1159646 L43.4576969,37.1159646 C43.4880512,37.0820276 43.518563,37.0482087 43.5476969,37.0137795 L43.5532874,37.0198228 Z M24.9950197,2.49265748 L24.9950197,2.49265748 C37.4242717,2.49265748 47.5362992,12.6047638 47.5362992,25.0340157 C47.5362992,29.4760236 46.2441339,33.6216929 44.0168307,37.1162992 L43.7913976,37.1162992 C43.7382087,37.0594291 43.6849213,37.0013386 43.6312992,36.9372835 C43.7054528,36.8549213 43.8947244,36.6304528 44.0654331,36.3156693 L44.0755315,36.3191929 L44.1059843,36.5678346 L44.1534843,36.2595866 L44.2401969,36.0841535 L44.4826969,35.865315 L44.22,36.0174213 L44.2078346,36.013248 C44.2976181,35.7912008 44.3655118,35.5425591 44.3786417,35.2777953 C44.3877756,35.0946654 44.3813189,34.9187795 44.3625,34.7528346 L44.3993307,34.7473622 L44.585315,34.9432087 L44.4266142,34.6620866 L44.3866142,34.4752756 L44.45,34.1818701 L44.3266339,34.4281299 L44.3045276,34.4314173 C44.2280315,34.1184843 44.098563,33.8636417 43.9237008,33.7115354 C43.7317323,33.5444094 43.4962598,33.5207087 43.2890157,33.6387205 L43.3725,33.4243898 L43.2141339,33.6427953 L42.9709055,33.8511024 L42.6986614,33.9688976 L43.005,33.9007677 L43.0158268,33.9095669 C42.8688976,34.1287008 42.7709252,34.4297441 42.736437,34.777815 L42.7297441,34.7776181 L42.6081496,34.5416929 L42.6618307,34.7930315 L42.6437992,35.0835236 L42.5323228,35.3219488 L42.7086417,35.1020472 L42.7243307,35.1028346 C42.7249213,35.1609646 42.7251181,35.2189567 42.7289567,35.2785433 C42.7549606,35.6784055 42.8990354,36.0433465 43.0563976,36.3314961 L43.0384252,36.3397441 L42.7862598,36.1926575 L42.9904331,36.3826575 L43.1583858,36.6375591 L43.2141339,36.8892126 L43.2251969,36.6248425 L43.2337795,36.6208661 C43.3346654,36.7691339 43.4239567,36.8773228 43.4717126,36.9318504 C43.4171457,36.997185 43.3627953,37.0579528 43.3086024,37.1162992 L41.141437,37.1162992 C41.0872638,37.0579528 41.0329134,36.997185 40.9782874,36.9318504 C41.0260433,36.8773228 41.1153346,36.7691339 41.2162795,36.6208661 L41.2248031,36.6248425 L41.2359055,36.8892126 L41.2916535,36.6375591 L41.459626,36.3826575 L41.6638386,36.1926575 L41.4116339,36.3397441 L41.3936024,36.3314961 C41.5509646,36.0433465 41.6950984,35.6784055 41.7211024,35.2785433 C41.725,35.2189567 41.7251772,35.1609646 41.7257874,35.1028346 L41.7414173,35.1020472 L41.9177362,35.3219488 L41.8062402,35.0835236 L41.7882283,34.7930315 L41.8419094,34.5416929 L41.7202559,34.7776181 L41.713563,34.777815 C41.6791339,34.4297441 41.5811024,34.1287008 41.4342323,33.9095669 L41.4450591,33.9007677 L41.7513386,33.9688976 L41.4790945,33.8511024 L41.2359055,33.6427953 L41.0775,33.4243898 L41.1610236,33.6387205 C40.9537795,33.5207087 40.7183071,33.5444094 40.5262992,33.7115354 C40.3514764,33.8636417 40.2220276,34.1184843 40.1455315,34.4314173 L40.1234252,34.4281299 L40.0000591,34.1818701 L40.0633858,34.4752756 L40.0233858,34.6620866 L39.864685,34.9432087 L40.0506693,34.7473622 L40.0875394,34.7528346 C40.0686811,34.9187795 40.0622638,35.0946654 40.0713583,35.2777953 C40.0845276,35.5425591 40.1524409,35.7912008 40.2421654,36.013248 L40.23,36.0174213 L39.9673031,35.865315 L40.2098031,36.0841535 L40.2965157,36.2595866 L40.3439961,36.5678346 L40.3745276,36.3191929 L40.384626,36.3157283 C40.5552559,36.6304528 40.7445472,36.8549213 40.8187008,36.9372835 C40.7658465,37.0003937 40.7131693,37.0596654 40.6606693,37.1162992 L38.4930118,37.1162992 C38.4388189,37.057815 38.3844685,36.9970472 38.3298425,36.9317126 C38.3776181,36.877185 38.4669488,36.7689961 38.5677756,36.6207283 L38.576378,36.6247047 L38.5875197,36.8890748 L38.6432087,36.6374213 L38.8111811,36.3825197 L39.0154134,36.1925197 L38.7631299,36.3396063 L38.7451575,36.3313583 C38.9025787,36.0432087 39.0466535,35.6782677 39.0726575,35.2784055 C39.0765551,35.2188189 39.0766732,35.1608268 39.0773425,35.1026969 L39.0929724,35.1019094 L39.2692913,35.321811 L39.157815,35.0833858 L39.1397244,34.7928937 L39.1934055,34.5415551 L39.071811,34.7774803 L39.0651181,34.7776772 C39.030689,34.4296063 38.9326575,34.128563 38.7857283,33.9094291 L38.7966142,33.9006299 L39.1028937,33.9687598 L38.8306496,33.8509646 L38.5874803,33.6426575 L38.4290551,33.424252 L38.5125984,33.6385827 C38.3053543,33.5205709 38.0698622,33.5442717 37.8779134,33.7113976 C37.7030512,33.8635039 37.5735827,34.1183465 37.4970866,34.4312795 L37.4749803,34.4279921 L37.3516142,34.1817323 L37.415,34.4751378 L37.375,34.6619488 L37.2162402,34.9430709 L37.4022244,34.7472244 L37.4391142,34.7526969 C37.4202953,34.9186417 37.4138386,35.0945276 37.4229331,35.2776575 C37.4361024,35.5424213 37.5039961,35.791063 37.5937795,36.0131102 L37.5816142,36.0172835 L37.3188583,35.8651772 L37.5614173,36.0840157 L37.6481299,36.2594488 L37.6955709,36.5676969 L37.7260827,36.3190551 L37.7361811,36.3155315 C37.9068307,36.630315 38.0961024,36.8547835 38.170315,36.9371457 C38.1174606,37.0001969 38.0648031,37.0595669 38.0124606,37.1158858 L35.8943307,37.1158858 C35.8419488,37.0595669 35.7893307,37.0001969 35.7364764,36.9371457 C35.810689,36.8547835 35.9999016,36.630315 36.1706102,36.3155906 L36.1807087,36.3190551 L36.2111614,36.5676969 L36.2586614,36.2594488 L36.345374,36.0840157 L36.587874,35.8651772 L36.3251772,36.0172835 L36.3130118,36.0131102 C36.4027953,35.791063 36.470689,35.5424213 36.4838189,35.2776575 C36.4929528,35.0945276 36.4864961,34.9186417 36.4676772,34.7526969 L36.5045079,34.7472244 L36.6905512,34.9430709 L36.5317913,34.6619488 L36.4917913,34.4751378 L36.5551772,34.1817323 L36.431811,34.4279921 L36.4097047,34.4312795 C36.3332087,34.1183465 36.2037402,33.8635039 36.028878,33.7113976 C35.8369094,33.5442717 35.601437,33.5205709 35.3941929,33.6385827 L35.4776772,33.424252 L35.319311,33.6426575 L35.0760827,33.8509646 L34.8038976,33.9687598 L35.1101772,33.9006299 L35.1210039,33.9094291 C34.9740748,34.128563 34.8760433,34.4296063 34.8416142,34.7776772 L34.8349803,34.7774803 L34.7133268,34.5415551 L34.7670079,34.7928937 L34.7489764,35.0833858 L34.6375,35.321811 L34.8138189,35.1019094 L34.8295079,35.1026969 C34.8300984,35.1608268 34.8302953,35.2188189 34.8341339,35.2784055 C34.8601378,35.6782677 35.0042126,36.0432087 35.1615748,36.3313583 L35.1436024,36.3396063 L34.891437,36.1925197 L35.0956102,36.3825197 L35.263563,36.6374213 L35.319252,36.8890748 L35.330374,36.6247047 L35.3389567,36.6207283 C35.4398425,36.7689961 35.5291339,36.877185 35.5768898,36.9317126 C35.5223228,36.9970472 35.4679724,37.057815 35.4137795,37.1162992 L33.246122,37.1162992 C33.1936024,37.0596654 33.1409449,37.0003937 33.0880315,36.9372835 C33.1622441,36.8549213 33.3515354,36.6304528 33.5221654,36.3157283 L33.5322638,36.3191929 L33.5627756,36.5678346 L33.6102165,36.2595866 L33.6969882,36.0841535 L33.9394882,35.865315 L33.6767913,36.0174213 L33.6645669,36.013248 C33.7543504,35.7912008 33.8222638,35.5425591 33.8354331,35.2777953 C33.8445276,35.0946654 33.8380512,34.9187795 33.819252,34.7528346 L33.856122,34.7473622 L34.0421063,34.9432087 L33.8833661,34.6620866 L33.8433465,34.4752756 L33.9067323,34.1818701 L33.7833661,34.4281299 L33.7612598,34.4314173 C33.6847638,34.1184843 33.555315,33.8636417 33.3804331,33.7115354 C33.1884843,33.5444094 32.9529921,33.5207087 32.7457677,33.6387205 L32.8292913,33.4243898 L32.6708858,33.6427953 L32.4276969,33.8511024 L32.1554528,33.9688976 L32.4617323,33.9007677 L32.4726181,33.9095669 C32.325689,34.1287008 32.2276575,34.4297441 32.1932283,34.777815 L32.1865354,34.7776181 L32.0648819,34.5416929 L32.118563,34.7930315 L32.1005512,35.0835236 L31.9891142,35.3219488 L32.165374,35.1020472 L32.1810039,35.1028346 C32.1815945,35.1609646 32.1817913,35.2189567 32.185689,35.2785433 C32.2116929,35.6784055 32.3557677,36.0433465 32.513189,36.3314961 L32.4951575,36.3397441 L32.2429921,36.1926575 L32.4471654,36.3826575 L32.6151378,36.6375591 L32.6708858,36.8892126 L32.6819882,36.6248425 L32.6905118,36.6208661 C32.7913976,36.7691339 32.880748,36.8773228 32.9285039,36.9318504 C32.873878,36.997185 32.8195276,37.0579528 32.7653543,37.1162992 L30.598189,37.1162992 C30.5439961,37.0579528 30.4896457,36.997185 30.4350787,36.9318504 C30.4828346,36.8773228 30.572126,36.7691339 30.6730118,36.6208661 L30.6815945,36.6248425 L30.6926969,36.8892126 L30.7483858,36.6375591 L30.9163583,36.3826575 L31.1205315,36.1926575 L30.8683071,36.3397441 L30.8503937,36.3314961 C31.0077559,36.0433465 31.1518307,35.6784055 31.1778346,35.2785433 C31.1817323,35.2189567 31.1819094,35.1609646 31.1824606,35.1028346 L31.1981496,35.1020472 L31.3744685,35.3219488 L31.2629921,35.0835236 L31.2449606,34.7930315 L31.2985827,34.5416929 L31.1769882,34.7776181 L31.1703543,34.777815 C31.1359252,34.4297441 31.0378937,34.1287008 30.8909646,33.9095669 L30.9017913,33.9007677 L31.2081299,33.9688976 L30.9358268,33.8511024 L30.6926575,33.6427953 L30.5342913,33.4243898 L30.6177756,33.6387205 C30.4105315,33.5207087 30.1750394,33.5444094 29.9830906,33.7115354 C29.8082283,33.8636417 29.6787598,34.1184843 29.6022638,34.4314173 L29.5801575,34.4281299 L29.4567913,34.1818701 L29.5201772,34.4752756 L29.4801772,34.6620866 L29.3214173,34.9432087 L29.5074606,34.7473622 L29.5442913,34.7528346 C29.5254724,34.9187795 29.5190157,35.0946654 29.5281496,35.2777953 C29.5412795,35.5425591 29.6091732,35.7912008 29.6989567,36.013248 L29.6867913,36.0174213 L29.4240945,35.865315 L29.6665945,36.0841535 L29.7533071,36.2595866 L29.8008071,36.5678346 L29.8312598,36.3191929 L29.8413583,36.3157283 C30.0120472,36.6304528 30.2012795,36.8549213 30.2754921,36.9372835 C30.2226378,37.0003346 30.1700197,37.0597047 30.1176378,37.1162992 L27.9995079,37.1162992 C27.947126,37.0597047 27.8945079,37.0003346 27.8416535,36.9372835 C27.9158661,36.8549213 28.1051378,36.6304528 28.2757874,36.3156693 L28.2858858,36.3191929 L28.3163976,36.5678346 L28.3638386,36.2595866 L28.4505512,36.0841535 L28.6931102,35.865315 L28.4303937,36.0174213 L28.418189,36.013248 C28.5079724,35.7912008 28.5758661,35.5425591 28.5890354,35.2777953 C28.5981299,35.0946654 28.5916732,34.9187795 28.5728543,34.7528346 L28.6097441,34.7473622 L28.7957283,34.9432087 L28.6369685,34.6620866 L28.5969685,34.4752756 L28.6603543,34.1818701 L28.5369882,34.4281299 L28.5148819,34.4314173 C28.4383858,34.1184843 28.3089173,33.8636417 28.1340551,33.7115354 C27.9420866,33.5444094 27.7066142,33.5207087 27.4993701,33.6387205 L27.5829134,33.4243898 L27.4244882,33.6427953 L27.1812598,33.8511024 L26.9090748,33.9688976 L27.2153543,33.9007677 L27.2262402,33.9095669 C27.079311,34.1287008 26.9812795,34.4297441 26.9468504,34.777815 L26.9401575,34.7776181 L26.8185039,34.5416929 L26.8722441,34.7930315 L26.8541535,35.0835236 L26.7426772,35.3219488 L26.9189961,35.1020472 L26.934626,35.1028346 C26.9352165,35.1609646 26.9354134,35.2189567 26.939311,35.2785433 C26.965315,35.6784055 27.1093898,36.0433465 27.266811,36.3314961 L27.2488386,36.3397441 L26.9965551,36.1926575 L27.2007874,36.3826575 L27.3687402,36.6375591 L27.4244291,36.8892126 L27.4355906,36.6248425 L27.4441339,36.6208661 C27.5450197,36.7691339 27.6343504,36.8773228 27.682126,36.9318504 C27.6275,36.997185 27.5731496,37.0579528 27.5189567,37.1162992 L25.3512992,37.1162992 C25.2987795,37.0598031 25.246122,37.0005315 25.1932677,36.9374213 C25.2674213,36.8550591 25.4567126,36.6305906 25.6273425,36.3158071 L25.6375,36.3193307 L25.6679528,36.5679724 L25.7154528,36.2597244 L25.8021654,36.0842913 L26.0446654,35.8654528 L25.7819685,36.0175591 L25.7698031,36.0133858 C25.8595276,35.7913386 25.9274409,35.5426969 25.9406102,35.2779331 C25.9497047,35.0948031 25.9432874,34.9189173 25.9244291,34.7529724 L25.9612992,34.7475 L26.1472835,34.9433465 L25.9885827,34.6622244 L25.9485827,34.4754134 L26.0119094,34.1820079 L25.8885433,34.4282677 L25.866437,34.4315551 C25.7899409,34.118622 25.6604921,33.8637795 25.4856693,33.7116732 C25.2936614,33.5445472 25.0581693,33.5208465 24.8509449,33.6388583 L24.9344685,33.4245276 L24.776063,33.6429331 L24.532874,33.8512402 L24.2606299,33.9690354 L24.5669094,33.9009055 L24.5777362,33.9097047 C24.4308661,34.1288386 24.3328346,34.4298819 24.2984055,34.7779528 L24.2917126,34.7777559 L24.1700591,34.5418307 L24.2237402,34.7931693 L24.2057283,35.0836614 L24.0942323,35.3220866 L24.2705512,35.102185 L24.2861811,35.1029724 C24.2867717,35.1611024 24.2869685,35.2190945 24.2908661,35.2786811 C24.3168701,35.6785433 24.4610039,36.0434843 24.6183661,36.3316339 L24.6003346,36.3398819 L24.3481299,36.1927953 L24.5523425,36.3827953 L24.720315,36.6376969 L24.776063,36.8893504 L24.7871654,36.6249803 L24.795689,36.6210039 C24.8966339,36.7692717 24.9859252,36.8774606 25.0336811,36.9319882 C24.9790551,36.9973228 24.9247047,37.0580906 24.8705315,37.1162992 L22.7331496,37.1162992 C22.6790354,37.0580906 22.624685,36.9973228 22.5700591,36.9319882 C22.617815,36.8774606 22.7071063,36.7692717 22.8079921,36.6210039 L22.8165157,36.6249803 L22.8276181,36.8893504 L22.8833661,36.6376969 L23.0513189,36.3827953 L23.2555512,36.1927953 L23.0033465,36.3398819 L22.985374,36.3316339 C23.1427362,36.0434843 23.2868504,35.6785433 23.312815,35.2786811 C23.3167126,35.2190945 23.3168307,35.1611024 23.3175,35.1029724 L23.3331102,35.102185 L23.5094488,35.3220866 L23.3979528,35.0836614 L23.3799409,34.7931693 L23.433563,34.5418307 L23.3120276,34.7777559 L23.3053346,34.7779528 C23.2709055,34.4298819 23.1728543,34.1288386 23.0259449,33.9097047 L23.036811,33.9009055 L23.3431102,33.9690354 L23.0708661,33.8512402 L22.8276181,33.6429331 L22.6692717,33.4245276 L22.7527362,33.6388583 C22.5455512,33.5208465 22.3100197,33.5445472 22.1180709,33.7116732 C21.943189,33.8637795 21.8137992,34.118622 21.7372441,34.4315551 L21.7151969,34.4282677 L21.5917717,34.1820079 L21.6551575,34.4754134 L21.6151378,34.6622244 L21.4564567,34.9433465 L21.6424213,34.7475 L21.679311,34.7529724 C21.6604528,34.9189173 21.6539764,35.0948031 21.6631299,35.2779331 C21.6762992,35.5426969 21.7441535,35.7913386 21.833937,36.0133858 L21.8217717,36.0175591 L21.5590157,35.8654528 L21.8015748,36.0842913 L21.8882874,36.2597244 L21.9357677,36.5679724 L21.9662402,36.3193307 L21.9763386,36.3158661 C22.1470276,36.6305906 22.3362992,36.8550591 22.4104724,36.9374213 C22.3575591,37.0005315 22.3048819,37.0598031 22.2523819,37.1162992 L20.0847047,37.1162992 C20.0305315,37.0579528 19.9761811,36.997185 19.9216142,36.9318504 C19.9693701,36.8773228 20.0586614,36.7691339 20.1595472,36.6208661 L20.1680709,36.6248425 L20.1791929,36.8892126 L20.2349213,36.6375591 L20.4028937,36.3826575 L20.6071063,36.1926575 L20.3548425,36.3397441 L20.3369291,36.3314961 C20.4942913,36.0433465 20.6384252,35.6784055 20.6644291,35.2785433 C20.6682677,35.2189567 20.6684449,35.1609646 20.6689961,35.1028346 L20.6847244,35.1020472 L20.8610039,35.3219488 L20.7495669,35.0835236 L20.7314961,34.7930315 L20.7851772,34.5416929 L20.6635827,34.7776181 L20.6568307,34.777815 C20.6224606,34.4297441 20.5244291,34.1287008 20.3775,33.9095669 L20.3883858,33.9007677 L20.6946063,33.9688976 L20.4224213,33.8511024 L20.1791929,33.6427953 L20.0207677,33.4243898 L20.1042913,33.6387205 C19.8971063,33.5207087 19.6615748,33.5444094 19.469626,33.7115354 C19.2947441,33.8636417 19.1653543,34.1184843 19.0888583,34.4314173 L19.0666929,34.4281299 L18.9433268,34.1818701 L19.0067126,34.4752756 L18.9666535,34.6620866 L18.8080118,34.9432087 L18.9939961,34.7473622 L19.0308661,34.7528346 C19.0120079,34.9187795 19.0055906,35.0946654 19.014685,35.2777953 C19.0278543,35.5425591 19.0957087,35.7912008 19.1854921,36.013248 L19.1733268,36.0174213 L18.9105709,35.865315 L19.1531299,36.0841535 L19.2398425,36.2595866 L19.2873228,36.5678346 L19.3177953,36.3191929 L19.3279528,36.3157283 C19.4985827,36.6304528 19.6878543,36.8549213 19.7620276,36.9372835 C19.7091732,37.0003346 19.6565551,37.0597047 19.6041142,37.1162992 L17.4861024,37.1162992 C17.4337008,37.0597047 17.3810236,37.0003346 17.328248,36.9372835 C17.4024016,36.8549213 17.5916142,36.6304528 17.7623622,36.3156693 L17.7724606,36.3191929 L17.8029331,36.5678346 L17.8504134,36.2595866 L17.9370866,36.0841535 L18.1796457,35.865315 L17.9169291,36.0174213 L17.9047638,36.013248 C17.9945472,35.7912008 18.0624016,35.5425591 18.0755709,35.2777953 C18.0846654,35.0946654 18.078248,34.9187795 18.0593307,34.7528346 L18.0962795,34.7473622 L18.2822638,34.9432087 L18.123563,34.6620866 L18.083563,34.4752756 L18.1469488,34.1818701 L18.0235236,34.4281299 L18.0014173,34.4314173 C17.9249213,34.1184843 17.7954528,33.8636417 17.6206299,33.7115354 C17.428622,33.5444094 17.1931496,33.5207087 16.9859055,33.6387205 L17.0694488,33.4243898 L16.9110827,33.6427953 L16.6678543,33.8511024 L16.3956102,33.9688976 L16.7018898,33.9007677 L16.7127756,33.9095669 C16.5658465,34.1287008 16.467815,34.4297441 16.4333858,34.777815 L16.4266339,34.7776181 L16.3050984,34.5416929 L16.3587795,34.7930315 L16.340689,35.0835236 L16.2292126,35.3219488 L16.4054724,35.1020472 L16.4212205,35.1028346 C16.421811,35.1609646 16.4220079,35.2189567 16.4258465,35.2785433 C16.4518504,35.6784055 16.5959843,36.0433465 16.7533268,36.3314961 L16.735374,36.3397441 L16.4830906,36.1926575 L16.6873819,36.3826575 L16.8553346,36.6375591 L16.9110236,36.8892126 L16.922126,36.6248425 L16.9307283,36.6208661 C17.0316142,36.7691339 17.1208268,36.8773228 17.1686614,36.9318504 C17.1140354,36.997185 17.059685,37.0579528 17.0054921,37.1162992 L14.8378346,37.1162992 C14.785374,37.0598031 14.7326378,37.0005315 14.6798031,36.9374213 C14.7539567,36.8550591 14.943189,36.6305906 15.113937,36.3158661 L15.1240354,36.3193307 L15.1544882,36.5679724 L15.2019882,36.2597244 L15.2886417,36.0842913 L15.5312008,35.8654528 L15.2685039,36.0175591 L15.2563386,36.0133858 C15.346122,35.7913386 15.4139567,35.5427559 15.427126,35.2779331 C15.4362402,35.0948031 15.4298228,34.9189173 15.4109055,34.7529724 L15.4478346,34.7475 L15.6338189,34.9433465 L15.4751181,34.6622244 L15.4351181,34.4754134 L15.4984449,34.1820079 L15.3750787,34.4282677 L15.3529724,34.4315551 C15.2765354,34.118622 15.1470276,33.8637795 14.9722047,33.7116732 C14.7801969,33.5445472 14.5447047,33.5208465 14.3374606,33.6388583 L14.4210039,33.4245276 L14.2626378,33.6429331 L14.0194094,33.8512402 L13.7471654,33.9690354 L14.0535039,33.9009055 L14.0642717,33.9097047 C13.9174016,34.1288386 13.8194291,34.4298819 13.7849409,34.7779528 L13.778189,34.7777559 L13.6566535,34.5418307 L13.7102756,34.7931693 L13.6922441,35.0836614 L13.5807677,35.3220866 L13.7570866,35.102185 L13.7727756,35.1029724 C13.7733661,35.1611024 13.773563,35.2190945 13.7774016,35.2786811 C13.8034055,35.6785433 13.9474803,36.0434843 14.1049016,36.3316339 L14.0869291,36.3398819 L13.8346654,36.1927953 L14.038937,36.3827953 L14.2068898,36.6376969 L14.2625787,36.8893504 L14.2737008,36.6249803 L14.2822244,36.6210039 C14.3831693,36.7692717 14.4724016,36.8774606 14.5201575,36.9319882 C14.4655906,36.9973228 14.4112402,37.0580906 14.3570472,37.1162992 L12.1898819,37.1162992 C12.1357087,37.0580906 12.0813583,36.9973228 12.0267913,36.9319882 C12.0745472,36.8774606 12.1638386,36.7692717 12.2647244,36.6210039 L12.273248,36.6249803 L12.2843701,36.8893504 L12.3400984,36.6376969 L12.5081102,36.3827953 L12.7122835,36.1927953 L12.4600787,36.3398819 L12.4421063,36.3316339 C12.5994685,36.0434843 12.7436024,35.6785433 12.7696063,35.2786811 C12.7734449,35.2190945 12.773622,35.1611024 12.7742323,35.1029724 L12.7899016,35.102185 L12.9661811,35.3220866 L12.8547441,35.0836614 L12.8366732,34.7931693 L12.8903543,34.5418307 L12.7687598,34.7777559 L12.7620079,34.7779528 C12.7276378,34.4298819 12.6295866,34.1288386 12.4826772,33.9097047 L12.493563,33.9009055 L12.7997835,33.9690354 L12.5275984,33.8512402 L12.2843701,33.6429331 L12.1260039,33.4245276 L12.2094685,33.6388583 C12.0022835,33.5208465 11.766752,33.5445472 11.5748031,33.7116732 C11.3999213,33.8637795 11.2705315,34.118622 11.1940354,34.4315551 L11.1718701,34.4282677 L11.0485039,34.1820079 L11.1118898,34.4754134 L11.0718307,34.6622244 L10.913189,34.9433465 L11.0991732,34.7475 L11.1360433,34.7529724 C11.117185,34.9189173 11.1107677,35.0948031 11.1198622,35.2779331 C11.1330315,35.5426969 11.2009449,35.7913386 11.2906693,36.0133858 L11.2785039,36.0175591 L11.015748,35.8654528 L11.2583071,36.0842913 L11.3450197,36.2597244 L11.3925,36.5679724 L11.4229724,36.3193307 L11.4330709,36.3158071 C11.6037598,36.6305906 11.7930315,36.8550591 11.8672047,36.9374213 C11.8142913,37.0005315 11.7616339,37.0598031 11.7091732,37.1162992 L9.54151575,37.1162992 C9.48732283,37.0579528 9.43291339,36.997185 9.37834646,36.9318504 C9.42610236,36.8773228 9.5153937,36.7691339 9.61627953,36.6208661 L9.62482283,36.6248425 L9.6359252,36.8892126 L9.69167323,36.6375591 L9.85968504,36.3826575 L10.0638583,36.1926575 L9.81163386,36.3397441 L9.79366142,36.3314961 C9.95102362,36.0433465 10.0951575,35.6784055 10.1211024,35.2785433 C10.125,35.2189567 10.1251772,35.1609646 10.1257874,35.1028346 L10.1414764,35.1020472 L10.3177362,35.3219488 L10.2063189,35.0835236 L10.1882283,34.7930315 L10.2419094,34.5416929 L10.120315,34.7776181 L10.113563,34.777815 C10.0791929,34.4297441 9.98116142,34.1287008 9.83423228,33.9095669 L9.84505906,33.9007677 L10.1513386,33.9688976 L9.87915354,33.8511024 L9.6359252,33.6427953 L9.4775,33.4243898 L9.56104331,33.6387205 C9.35385827,33.5207087 9.11832677,33.5444094 8.92635827,33.7115354 C8.75149606,33.8636417 8.62208661,34.1184843 8.54559055,34.4314173 L8.5234252,34.4281299 L8.40005906,34.1818701 L8.46344488,34.4752756 L8.42344488,34.6620866 L8.26468504,34.9432087 L8.45066929,34.7473622 L8.48761811,34.7528346 C8.46874016,34.9187795 8.46232283,35.0946654 8.47143701,35.2777953 C8.4846063,35.5425591 8.5525,35.7912008 8.64228346,36.013248 L8.63005906,36.0174213 L8.36730315,35.865315 L8.60992126,36.0841535 L8.69663386,36.2595866 L8.7440748,36.5678346 L8.77458661,36.3191929 L8.78462598,36.3157283 C8.95533465,36.6304528 9.1446063,36.8549213 9.2188189,36.9372835 C9.16596457,37.0003346 9.1132874,37.0597047 9.06090551,37.1162992 L6.94283465,37.1162992 C6.8903937,37.0597047 6.83777559,37.0003346 6.78498031,36.9372835 C6.85913386,36.8549213 7.04836614,36.6304528 7.21911417,36.3157283 L7.2292126,36.3191929 L7.25966535,36.5678346 L7.30716535,36.2595866 L7.3938189,36.0841535 L7.63637795,35.865315 L7.3736811,36.0174213 L7.36151575,36.013248 C7.45129921,35.7912008 7.51913386,35.5425591 7.53230315,35.2777953 C7.54139764,35.0946654 7.535,34.9187795 7.51612205,34.7528346 L7.55301181,34.7473622 L7.73899606,34.9432087 L7.58029528,34.6620866 L7.54029528,34.4752756 L7.60362205,34.1818701 L7.48031496,34.4281299 L7.45814961,34.4314173 C7.38165354,34.1184843 7.25220472,33.8636417 7.07738189,33.7115354 C6.88541339,33.5444094 6.64994094,33.5207087 6.44269685,33.6387205 L6.5261811,33.4243898 L6.36781496,33.6427953 L6.12458661,33.8511024 L5.85234252,33.9688976 L6.1586811,33.9007677 L6.16944882,33.9095669 C6.02251969,34.1287008 5.92454724,34.4297441 5.89011811,34.777815 L5.8834252,34.7776181 L5.76183071,34.5416929 L5.81545276,34.7930315 L5.79742126,35.0835236 L5.68594488,35.3219488 L5.86226378,35.1020472 L5.87795276,35.1028346 C5.87854331,35.1609646 5.87874016,35.2189567 5.88257874,35.2785433 C5.90858268,35.6784055 6.05265748,36.0433465 6.21001969,36.3314961 L6.1921063,36.3397441 L5.93988189,36.1926575 L6.14411417,36.3826575 L6.31206693,36.6375591 L6.36775591,36.8892126 L6.37885827,36.6248425 L6.38740157,36.6208661 C6.48834646,36.7691339 6.57757874,36.8773228 6.62533465,36.9318504 C6.57076772,36.997185 6.51641732,37.0579528 6.46222441,37.1162992 L5.97324803,37.1162992 C3.74588583,33.6218307 2.45372047,29.4761614 2.45372047,25.0341535 C2.45372047,12.6049016 12.5657677,2.49265748 24.9950197,2.49265748 L24.9950197,2.49265748 Z M8.8344685,40.7310827 L8.8344685,40.7310827 L8.8344685,38.8589961 L10.2123819,38.8589961 L10.2123819,41.5501181 L9.94549213,41.8000984 C9.56305118,41.456437 9.1926378,41.0997441 8.8344685,40.7310827 Z M40.2323031,41.629626 L40.2323031,41.629626 L40.2323031,38.8589961 L41.6102165,38.8589961 L41.6102165,40.2502559 C41.1709055,40.7295669 40.711063,41.1896457 40.2323031,41.629626 L40.2323031,41.629626 Z M41.8070866,40.0317323 L41.8070866,40.0317323 L41.8070866,38.8589961 L42.7862008,38.8589961 C42.4730512,39.2611417 42.1461811,39.6520276 41.8070866,40.0317323 Z" id="path54" fill="#FFFFFF"></path>
                <path d="M15.524252,5.84742126 C15.7501378,5.84742126 15.9902559,5.96911417 16.0413583,6.24612205 L15.8093504,6.24612205 C15.7595669,6.11962598 15.6588583,6.06348425 15.524252,6.06348425 C15.3258858,6.06348425 15.1928543,6.20767717 15.1928543,6.42049213 C15.1928543,6.61271654 15.3225984,6.77287402 15.5226969,6.77287402 C15.6619291,6.77287402 15.775689,6.70708661 15.8141339,6.57098425 L16.0446457,6.57098425 C15.9966142,6.86722441 15.7580118,6.99049213 15.524252,6.99049213 C15.2297441,6.99049213 14.9512008,6.79206693 14.9512008,6.42049213 C14.9512008,6.04751969 15.2297441,5.84261811 15.524252,5.84742126 L15.524252,5.84742126 Z M15.544626,11.7991732 C15.0967717,11.7991732 14.7337402,12.1622047 14.7337402,12.6100591 C14.7337402,13.0579134 15.0967717,13.4209449 15.544626,13.4209449 C15.9924803,13.4209449 16.3555118,13.0579134 16.3555118,12.6100591 C16.3555118,12.1622047 15.9924803,11.7991732 15.544626,11.7991732 Z M15.544626,13.1387598 L15.544626,13.1387598 C15.2526181,13.1387598 15.0159252,12.9020669 15.0159252,12.6100591 C15.0159252,12.3180512 15.2526181,12.0813583 15.544626,12.0813583 C15.8366929,12.0813583 16.0733858,12.3180512 16.0733858,12.6100591 C16.0733858,12.9020669 15.8366929,13.1387598 15.544626,13.1387598 Z M15.8320472,19.4341422 C15.5598031,19.4308465 15.3086024,19.2580315 15.2701378,18.9425984 L15.1036417,18.9425984 L15.1036417,19.4116535 L14.8635236,19.4116535 L14.8635236,18.2909055 L15.1036417,18.2909055 L15.1036417,18.7247441 L15.2749409,18.7247441 C15.3293504,18.4287402 15.574252,18.2701378 15.8368504,18.2716428 C16.1313583,18.2734252 16.4052953,18.4766142 16.4052953,18.8512402 C16.4052953,19.230748 16.1282874,19.4356496 15.8320472,19.4341422 L15.8320472,19.4341422 Z M9.08588583,12.297126 C9.07777559,12.0905118 9.25232283,11.9993898 9.44612205,11.9993898 C9.67812992,11.9993898 9.81751969,12.1385433 9.81751969,12.316378 C9.81751969,12.4075 9.76620079,12.4876378 9.6894685,12.5340157 C9.81116142,12.5900787 9.8782874,12.6781299 9.8782874,12.8173622 C9.8782874,13.0222638 9.72137795,13.1649409 9.44612205,13.1649409 C9.20757874,13.1649409 9.0426378,13.0447441 9.0426378,12.7885039 L9.2586811,12.7885039 C9.2586811,12.9005512 9.3421063,12.9663386 9.44612205,12.9663386 C9.5630315,12.9663386 9.63661417,12.8974803 9.63661417,12.8029134 C9.63661417,12.7133465 9.55972441,12.6429921 9.44612205,12.6429921 L9.36287402,12.6429921 L9.36287402,12.450748 L9.4446063,12.450748 C9.53094488,12.450748 9.59338583,12.3930512 9.59338583,12.3211811 C9.59338583,12.2362008 9.52301181,12.1898819 9.44612205,12.1898819 C9.37251969,12.1898819 9.29712598,12.2235433 9.29712598,12.297126 L9.08588583,12.297126 Z M21.9555512,12.561063 C22.0595669,12.604311 22.1154724,12.6954331 22.1154724,12.8107677 C22.1154724,13.0076378 21.9841929,13.1422244 21.7602559,13.1422244 L21.2398622,13.1422244 L21.2398622,12.0232087 L21.7152362,12.0232087 C21.9201772,12.0232087 22.0675984,12.1449213 22.0675984,12.3546063 C22.0675984,12.4361417 22.0259252,12.5178346 21.9555512,12.561063 Z M18.4901575,15.4375591 C19.0801772,14.765 19.4443307,13.8915748 19.4627362,12.932874 L20.9306299,12.6226181 L19.4210039,12.2876969 C19.2907087,11.3975787 18.8603346,10.6054921 18.2364764,10.0141339 L20.8298425,7.42679134 C20.859311,7.39744094 20.859311,7.34978346 20.8300394,7.32031496 C20.800689,7.2909252 20.7528543,7.2909252 20.723563,7.32021654 L18.1267913,9.91100394 C17.5258858,9.38324803 16.7632087,9.03612205 15.9230709,8.95521654 L15.5572047,7.2240748 L15.173248,8.95454724 C14.3262008,9.0346063 13.5582677,9.38588583 12.9541142,9.91938976 L10.348937,7.32021654 C10.3194094,7.29074803 10.271811,7.29086614 10.2425197,7.32031496 C10.2131102,7.34978346 10.2132283,7.39744094 10.2426378,7.42679134 L12.8437992,10.0218898 C12.2265551,10.6102362 11.800689,11.3959055 11.6693898,12.2781693 L10.1586024,12.5975 L11.6259055,12.9230512 C11.6418701,13.8814173 12.0039567,14.7549016 12.5915354,15.4284646 L10.2426378,17.7718504 C10.2132283,17.8012008 10.2131102,17.8488583 10.2425197,17.8782677 C10.2572441,17.8930512 10.276437,17.9003543 10.295748,17.9003543 C10.3149409,17.9003543 10.3341929,17.8930512 10.348937,17.8783661 L12.6919094,15.5408465 C13.3489173,16.2384646 14.2573425,16.6932283 15.2715551,16.7637205 L15.5320276,17.996063 L15.8043307,16.7687402 C16.8202362,16.7018898 17.7320079,16.2479528 18.3914567,15.5516732 L20.723563,17.8783661 C20.738189,17.8931102 20.7575,17.9003543 20.7766929,17.9003543 C20.7959843,17.9003543 20.8152953,17.8930512 20.8300394,17.8782677 C20.8592717,17.8488583 20.8592717,17.8012008 20.8298425,17.7718504 L18.4901575,15.4375591 Z M18.3478543,15.2956693 L18.3478543,15.2956693 L18.2283858,15.1764173 C18.7358858,14.5901772 19.0535039,13.8377165 19.0892717,13.0118307 L19.2599606,12.9757283 C19.2318898,13.8623228 18.8931299,14.6699803 18.3478543,15.2956693 Z M17.7571063,14.7062402 L17.7571063,14.7062402 L17.7151378,14.6407874 C18.0525,14.2311024 18.2759843,13.7253346 18.3379331,13.1706299 L18.5134646,13.1335236 C18.4561024,13.7552953 18.205689,14.3211811 17.824685,14.7736614 L17.7571063,14.7062402 Z M17.6008661,14.4624606 L17.6008661,14.4624606 L16.9596654,13.4619685 L18.1295669,13.2146654 C18.0652953,13.6811417 17.878189,14.1080709 17.6008661,14.4624606 L17.6008661,14.4624606 Z M17.4201181,14.6718701 L17.4201181,14.6718701 C17.0697638,15.0337992 16.6158268,15.2937205 16.106752,15.4059843 L16.4165551,14.0096457 L17.4201181,14.6718701 Z M16.0592717,15.6200394 L16.0592717,15.6200394 C16.6569488,15.508878 17.1876575,15.2084449 17.5887598,14.7831496 L17.684626,14.8464764 L17.7241339,14.8858071 C17.2817913,15.3605709 16.6881299,15.6916142 16.0194882,15.7992717 L16.0592717,15.6200394 Z M15.9731102,16.0082283 L15.9731102,16.0082283 C16.7161417,15.9075787 17.3773819,15.5497835 17.8662008,15.0275984 L17.9863386,15.1474606 C17.4583465,15.7099803 16.7398622,16.0907087 15.9339961,16.1845079 L15.9731102,16.0082283 Z M17.9665157,14.9151575 L17.9665157,14.9151575 C18.3919488,14.4155906 18.6652953,13.7842126 18.7159646,13.0907283 L18.8866732,13.054685 C18.8424213,13.8086024 18.5492323,14.4954331 18.086437,15.0348031 L17.9665157,14.9151575 Z M19.2114764,12.2411614 L19.2114764,12.2411614 L19.0334646,12.2016535 C18.892126,11.4485236 18.511122,10.7804921 17.9748425,10.2751575 L18.0947441,10.1555906 C18.671378,10.7002953 19.0747047,11.4252559 19.2114764,12.2411614 L19.2114764,12.2411614 Z M17.6182677,10.4184646 L17.6182677,10.4184646 L17.5986811,10.4313386 C17.1750984,10.0722638 16.6561024,9.82419291 16.086063,9.7259252 L16.0484449,9.5480315 C16.6815551,9.64411417 17.2573031,9.9155315 17.7224016,10.3145079 L17.6182677,10.4184646 Z M16.1302559,9.93517717 L16.1302559,9.93517717 C16.6139764,10.0320472 17.0560236,10.2454134 17.4246457,10.546122 L17.2762205,10.6441142 C16.9558071,10.3927362 16.578937,10.2112205 16.1688583,10.1177559 L16.1302559,9.93517717 Z M17.098878,10.761122 L17.098878,10.761122 L16.4019882,11.2209843 L16.2145079,10.3340354 C16.5382087,10.4200787 16.8373425,10.5665551 17.098878,10.761122 Z M17.4186811,11.0429724 L17.4186811,11.0429724 C17.6730118,11.3057874 17.8726181,11.6215551 17.9994488,11.9722638 L16.9695472,11.7437598 L17.4186811,11.0429724 Z M18.2274409,12.022874 L18.2274409,12.022874 C18.0901181,11.5825 17.8475,11.1891142 17.5289961,10.8707677 L17.6229528,10.7241339 C17.9959843,11.0879528 18.2736417,11.5484055 18.4163189,12.0647835 L18.2274409,12.022874 Z M18.6362795,12.113563 L18.6362795,12.113563 C18.490374,11.5073425 18.1705315,10.9690945 17.7325591,10.5531496 L17.7969488,10.4526575 L17.8332087,10.4164961 C18.3214173,10.874685 18.6729528,11.4758661 18.8185236,12.1540157 L18.6362795,12.113563 Z M17.985315,10.052185 L17.985315,10.052185 L17.8648425,10.1723819 C17.3517717,9.72814961 16.7100591,9.43023622 16.0041339,9.33844488 L15.9669291,9.16255906 C16.7342913,9.24978346 17.4317913,9.56980315 17.985315,10.052185 L17.985315,10.052185 Z M15.1274016,9.16133858 L15.1274016,9.16133858 L15.0885827,9.33637795 C14.3770079,9.42811024 13.7306693,9.73043307 13.2148622,10.1795276 L13.0958465,10.0607283 C13.6521063,9.57291339 14.3539173,9.24816929 15.1274016,9.16133858 L15.1274016,9.16133858 Z M13.2468898,10.4239764 L13.2468898,10.4239764 L13.3569882,10.5338583 L13.3645079,10.5456299 C12.9228543,10.9623425 12.6009449,11.5030512 12.4540354,12.1123228 L12.2706693,12.1511024 C12.415748,11.4779921 12.7636614,10.8806496 13.2468898,10.4239764 Z M13.4745079,10.7172047 L13.4745079,10.7172047 L13.5676772,10.8626181 C13.2440945,11.1833661 12.997126,11.5809449 12.8589764,12.0267913 L12.6723819,12.0661811 C12.8158858,11.5456693 13.097126,11.0825984 13.4745079,10.7172047 L13.4745079,10.7172047 Z M13.6782874,11.0351575 L13.6782874,11.0351575 L14.1401969,11.7559252 L13.087185,11.9785236 C13.2151969,11.6217323 13.4185236,11.3011614 13.6782874,11.0351575 L13.6782874,11.0351575 Z M13.9970079,10.7571654 L13.9970079,10.7571654 C14.2549213,10.5666142 14.5487008,10.4225787 14.8665945,10.3369291 L14.6741929,11.2040157 L13.9970079,10.7571654 Z M14.9151378,10.118189 L14.9151378,10.118189 C14.5094882,10.2114961 14.1370079,10.3918504 13.8190748,10.6397638 L13.6712598,10.5422244 C14.0379724,10.2447047 14.4757283,10.0322047 14.9556496,9.93557087 L14.9151378,10.118189 Z M15.0026969,9.72346457 L15.0026969,9.72346457 C14.4350984,9.82145669 13.9195079,10.0704921 13.4968701,10.4271654 L13.3970472,10.3612598 L13.3575394,10.3218701 C13.8249213,9.91809055 14.4041929,9.64076772 15.0424213,9.54440945 L15.0026969,9.72346457 Z M12.9855709,10.1632874 L12.9855709,10.1632874 L13.1051575,10.2825787 C12.5738386,10.7860039 12.1955118,11.4491929 12.0542717,12.196811 L11.8781102,12.2340748 C12.0152756,11.4249213 12.4150197,10.7056102 12.9855709,10.1632874 Z M11.8287402,12.9680118 L11.8287402,12.9680118 L11.9974213,13.0054528 C12.0314567,13.8298031 12.3487795,14.5809252 12.8528937,15.1677165 L12.7336417,15.2866339 C12.1915354,14.660374 11.8549016,13.8534055 11.8287402,12.9680118 L11.8287402,12.9680118 Z M13.2156496,15.0183465 L13.2156496,15.0183465 C13.7039961,15.544252 14.3664173,15.9045472 15.1116142,16.0066732 L15.148563,16.181378 C14.3415748,16.085689 13.6227559,15.7035039 13.0956693,15.1380315 L13.2156496,15.0183465 Z M13.3631299,14.882185 L13.3631299,14.882185 L13.5052362,14.7883858 C13.9058858,15.2110827 14.4346457,15.5104331 15.0301575,15.6210433 L15.0675984,15.7985433 C14.3984843,15.6903346 13.8050591,15.357874 13.3631299,14.882185 Z M13.6751575,14.6762205 L13.6751575,14.6762205 L14.6890354,14.0073031 L14.9847244,15.4062598 C14.4772244,15.2947638 14.0251969,15.0360236 13.6751575,14.6762205 Z M13.4957087,14.4707677 L13.4957087,14.4707677 C13.215689,14.1158268 13.0254724,13.6876181 12.9601969,13.2190748 L14.1313189,13.4789173 L13.4957087,14.4707677 Z M12.7508858,13.1726378 L12.7508858,13.1726378 C12.8132677,13.7284055 13.0383661,14.2348031 13.377126,14.6447047 L13.2567717,14.7647835 C12.8804528,14.314311 12.6354921,13.7513386 12.5782283,13.134311 L12.7508858,13.1726378 Z M12.3725591,13.0887205 L12.3725591,13.0887205 C12.4225,13.7788583 12.6928543,14.4083268 13.1141339,14.9070669 L12.994626,15.0263189 C12.5352756,14.4872244 12.2436024,13.802126 12.2005906,13.0505512 L12.3725591,13.0887205 Z M12.834311,15.3987795 L12.834311,15.3987795 L12.9536614,15.2797047 C13.5264567,15.8922244 14.3119488,16.3003937 15.192185,16.3878346 L15.2284646,16.5595866 C14.2870669,16.479626 13.4455315,16.0500787 12.834311,15.3987795 L12.834311,15.3987795 Z M15.5849803,13.6427559 L15.5849803,13.6427559 C15.5715157,13.6431496 15.5583071,13.6448228 15.544626,13.6448228 C15.2430906,13.6448228 14.9724606,13.5149803 14.7833465,13.3091339 L14.7744685,13.3192913 L14.6079724,13.4908071 L10.9305709,12.6750197 L14.5119291,12.6503543 C14.5115354,12.6369094 14.5099213,12.6236811 14.5099213,12.6100591 C14.5099213,12.3084646 14.6397244,12.0378937 14.8456102,11.8487205 L14.8353543,11.8398031 L14.663878,11.6734055 L15.4797244,7.99600394 L15.5043898,11.5773622 C15.5178346,11.5769685 15.531063,11.5753543 15.544626,11.5753543 C15.8462795,11.5753543 16.1168504,11.7051575 16.3059646,11.9110039 L16.315,11.9006693 L16.4813386,11.729252 L20.1586811,12.5451181 L16.5773228,12.5697835 C16.5779134,12.5832283 16.5793898,12.5964567 16.5793898,12.6100591 C16.5793898,12.9116535 16.4495866,13.1822441 16.2437008,13.3713386 L16.2539567,13.3803346 L16.4254331,13.5467717 L15.6095866,17.2241142 L15.5849803,13.6427559 Z M15.8500197,16.5630512 L15.8500197,16.5630512 L15.888189,16.3909646 C16.7679921,16.3060433 17.5542126,15.8988583 18.128563,15.2893701 L18.248878,15.4093898 C17.635689,16.0584055 16.791811,16.4860039 15.8500197,16.5630512 Z M21.4784055,12.2281693 L21.4784055,12.2281693 L21.4784055,12.4826772 L21.6977559,12.4826772 C21.7792323,12.4826772 21.8306299,12.4378543 21.832126,12.3625394 C21.8338976,12.2808465 21.7810236,12.2281693 21.6977559,12.2281693 L21.4784055,12.2281693 Z M21.4784055,12.6779724 L21.4784055,12.6779724 L21.4784055,12.9340354 L21.7440748,12.9340354 C21.8257677,12.9340354 21.8738583,12.8861614 21.8786614,12.8107677 C21.8802362,12.7660236 21.8627165,12.7242913 21.8290551,12.7002953 C21.8017717,12.6812008 21.7698622,12.6779724 21.7329134,12.6779724 L21.4784055,12.6779724 Z M15.8352953,19.2066929 L15.8352953,19.2066929 C16.0098425,19.2066929 16.1650197,19.0802559 16.1650197,18.8512402 C16.1650197,18.6255906 16.0081496,18.5006102 15.8320472,18.5006102 C15.6544488,18.5006102 15.5023228,18.6271063 15.5023228,18.8512402 C15.5023228,19.0802559 15.6575197,19.2066929 15.8352953,19.2066929 Z" id="path56" fill="#FFFFFF"></path>
            </g>
        </g>
    </g>
</svg>